<svg xmlns="http://www.w3.org/2000/svg" class="trait-chart" role="img" aria-labelledby="crafting-leveling-title crafting-leveling-desc" width="920" height="416" viewBox="0 0 920 416">
<title id="crafting-leveling-title">Crafting / Leveling</title>
<desc id="crafting-leveling-desc">Share of the base level-up price remaining after the trait and Mastery. Lower is better. Actual payment is rounded up and cannot fall below 1 Essence. Trait values use a logarithmic horizontal axis. Mastery is included in the no-direct-grants series. Each grant series adds only its named grant.</desc>
<style>
  .trait-chart { --paper: #fff; --ink: #202731; --muted: #68707e; --grid: #e5e8ed; background: var(--paper); color: var(--ink); font-family: system-ui, -apple-system, sans-serif; }
  .trait-chart text { fill: var(--ink); font-size: 12px; }
  .trait-chart .muted { fill: var(--muted); }
  .trait-chart .chart-title { font-size: 19px; font-weight: 600; }
  .trait-chart .metric { font-size: 13px; font-weight: 500; }
  .trait-chart .grid { stroke: var(--grid); stroke-width: 1; }
  .trait-chart .series { fill: none; stroke-width: 2; stroke-linejoin: round; }
  .trait-chart .hover-guide { stroke: var(--muted); stroke-width: 1; }
  @media (prefers-color-scheme: dark) {
    .trait-chart { --paper: #171b23; --ink: #edf0f5; --muted: #b0b7c2; --grid: #333c48; }
    .trait-chart .series, .trait-chart .swatch, .trait-chart .hover-dot { filter: brightness(1.35); }
  }
</style>
<rect width="100%" height="100%" fill="var(--paper)"/>
<text x="20" y="30" class="chart-title">Crafting / Leveling</text>
<text x="20" y="52" class="metric">Base level-up price remaining</text>
<text x="20" y="70" class="muted">% · lower is better</text>
<rect class="grid" x="70" y="87" width="834" height="216" fill="none"/>
<line class="grid" x1="70" x2="904" y1="299" y2="299"/>
<text x="61" y="303" text-anchor="end">0</text>
<line class="grid" x1="70" x2="904" y1="257.4" y2="257.4"/>
<text x="61" y="261.4" text-anchor="end">20</text>
<line class="grid" x1="70" x2="904" y1="215.8" y2="215.8"/>
<text x="61" y="219.8" text-anchor="end">40</text>
<line class="grid" x1="70" x2="904" y1="174.2" y2="174.2"/>
<text x="61" y="178.2" text-anchor="end">60</text>
<line class="grid" x1="70" x2="904" y1="132.6" y2="132.6"/>
<text x="61" y="136.6" text-anchor="end">80</text>
<line class="grid" x1="70" x2="904" y1="91" y2="91"/>
<text x="61" y="95" text-anchor="end">100</text>
<text x="74" y="323" text-anchor="start">1</text>
<text x="257.55555555555554" y="323" text-anchor="middle">100</text>
<text x="441.1111111111111" y="323" text-anchor="middle">10k</text>
<text x="624.6666666666666" y="323" text-anchor="middle">1m</text>
<text x="900" y="323" text-anchor="end">1b</text>
<text x="487" y="346" text-anchor="middle" class="muted">Trait Units (TU) · log scale</text>
<path class="series" data-series="0" d="M74.00,91.00 L75.15,91.00 L76.29,91.01 L77.44,91.03 L78.59,91.06 L79.74,91.09 L80.88,91.13 L82.03,91.18 L83.18,91.23 L84.32,91.29 L85.47,91.36 L86.62,91.44 L87.77,91.52 L88.91,91.61 L90.06,91.71 L91.21,91.81 L92.36,91.92 L93.50,92.04 L94.65,92.16 L95.80,92.30 L96.94,92.43 L98.09,92.58 L99.24,92.73 L100.39,92.89 L101.53,93.06 L102.68,93.23 L103.83,93.41 L104.98,93.60 L106.12,93.79 L107.27,93.99 L108.42,94.20 L109.56,94.41 L110.71,94.63 L111.86,94.86 L113.01,95.09 L114.15,95.33 L115.30,95.58 L116.45,95.83 L117.59,96.09 L118.74,96.35 L119.89,96.62 L121.04,96.90 L122.18,97.18 L123.33,97.47 L124.48,97.76 L125.63,98.06 L126.77,98.37 L127.92,98.68 L129.07,99.00 L130.21,99.32 L131.36,99.65 L132.51,99.99 L133.66,100.33 L134.80,100.67 L135.95,101.02 L137.10,101.38 L138.24,101.74 L139.39,102.11 L140.54,102.48 L141.69,102.85 L142.83,103.24 L143.98,103.62 L145.13,104.01 L146.27,104.41 L147.42,104.81 L148.57,105.21 L149.72,105.62 L150.86,106.04 L152.01,106.46 L153.16,106.88 L154.31,107.31 L155.45,107.74 L156.60,108.17 L157.75,108.61 L158.89,109.06 L160.04,109.51 L161.19,109.96 L162.34,110.41 L163.48,110.87 L164.63,111.33 L165.78,111.80 L166.93,112.27 L168.07,112.74 L169.22,113.22 L170.37,113.70 L171.51,114.18 L172.66,114.67 L173.81,115.16 L174.96,115.65 L176.10,116.15 L177.25,116.64 L178.40,117.14 L179.54,117.65 L180.69,118.16 L181.84,118.66 L182.99,119.18 L184.13,119.69 L185.28,120.21 L186.43,120.72 L187.57,121.25 L188.72,121.77 L189.87,122.29 L191.02,122.82 L192.16,123.35 L193.31,123.88 L194.46,124.42 L195.61,124.95 L196.75,125.49 L197.90,126.03 L199.05,126.57 L200.19,127.11 L201.34,127.65 L202.30,128.11 L202.30,136.24 L202.49,136.33 L203.64,136.85 L204.78,137.37 L205.93,137.89 L207.08,138.42 L208.22,138.94 L209.37,139.47 L210.52,140.00 L211.67,140.52 L212.81,141.05 L213.96,141.58 L215.11,142.11 L216.26,142.64 L217.40,143.17 L218.55,143.71 L219.70,144.24 L220.84,144.77 L221.99,145.31 L223.14,145.84 L224.29,146.38 L225.43,146.91 L226.58,147.45 L227.73,147.98 L228.88,148.52 L230.02,149.05 L231.17,149.59 L232.32,150.13 L233.46,150.66 L234.61,151.20 L235.76,151.73 L236.91,152.27 L238.05,152.81 L239.20,153.34 L240.35,153.88 L241.49,154.41 L242.64,154.95 L243.79,155.48 L244.94,156.02 L246.08,156.55 L247.23,157.08 L248.38,157.62 L249.53,158.15 L250.67,158.68 L251.82,159.21 L252.97,159.74 L254.11,160.27 L255.26,160.80 L256.41,161.33 L257.56,161.86 L257.56,168.09 L258.70,168.59 L259.85,169.10 L261.00,169.60 L262.14,170.10 L263.29,170.60 L264.44,171.10 L265.59,171.60 L266.73,172.09 L267.88,172.59 L269.03,173.09 L270.18,173.58 L271.32,174.07 L272.47,174.57 L273.62,175.06 L274.76,175.55 L275.91,176.04 L277.06,176.52 L278.21,177.01 L279.35,177.50 L280.50,177.98 L281.65,178.47 L282.79,178.95 L283.94,179.43 L285.09,179.91 L286.24,180.39 L287.38,180.86 L288.53,181.34 L289.68,181.82 L290.82,182.29 L291.97,182.76 L293.12,183.23 L294.27,183.70 L295.41,184.17 L296.56,184.64 L297.71,185.10 L298.86,185.56 L300.00,186.03 L301.15,186.49 L301.34,186.57 L301.34,191.45 L302.30,191.82 L303.44,192.26 L304.59,192.69 L305.74,193.13 L306.89,193.56 L308.03,194.00 L309.18,194.43 L310.33,194.86 L311.48,195.28 L312.62,195.71 L313.77,196.14 L314.92,196.56 L316.06,196.98 L317.21,197.40 L318.36,197.82 L319.51,198.24 L320.65,198.66 L321.80,199.07 L322.95,199.49 L324.09,199.90 L325.24,200.31 L326.39,200.72 L327.54,201.12 L328.68,201.53 L329.83,201.93 L330.98,202.34 L332.13,202.74 L333.27,203.14 L334.42,203.53 L335.57,203.93 L336.71,204.33 L337.86,204.72 L339.01,205.11 L340.16,205.50 L341.30,205.89 L342.45,206.28 L343.60,206.66 L344.74,207.05 L345.89,207.43 L347.04,207.81 L348.19,208.19 L349.33,208.57 L349.33,212.33 L350.48,212.69 L351.63,213.05 L352.78,213.41 L353.92,213.77 L355.07,214.12 L356.22,214.47 L357.36,214.82 L358.51,215.17 L359.66,215.52 L360.81,215.87 L361.95,216.21 L363.10,216.56 L364.25,216.90 L365.39,217.24 L366.54,217.58 L367.69,217.92 L368.84,218.26 L369.98,218.59 L371.13,218.92 L372.28,219.26 L373.43,219.59 L374.57,219.92 L375.72,220.24 L376.87,220.57 L378.01,220.89 L379.16,221.22 L380.31,221.54 L381.46,221.86 L382.60,222.18 L383.75,222.49 L384.90,222.81 L386.04,223.12 L387.19,223.44 L388.34,223.75 L389.49,224.06 L390.63,224.37 L391.78,224.67 L392.93,224.98 L393.12,225.03 L393.12,227.99 L394.07,228.23 L395.22,228.52 L396.37,228.81 L397.52,229.10 L398.66,229.39 L399.81,229.67 L400.96,229.96 L402.11,230.24 L403.25,230.52 L404.40,230.80 L405.55,231.08 L406.69,231.36 L407.84,231.64 L408.99,231.91 L410.14,232.18 L411.28,232.46 L412.43,232.73 L413.58,233.00 L414.72,233.27 L415.87,233.53 L417.02,233.80 L418.17,234.06 L419.31,234.33 L420.46,234.59 L421.61,234.85 L422.76,235.11 L423.90,235.37 L425.05,235.62 L426.20,235.88 L427.34,236.14 L428.49,236.39 L429.64,236.64 L430.79,236.89 L431.93,237.14 L433.08,237.39 L434.23,237.64 L435.38,237.88 L436.52,238.13 L437.67,238.37 L438.82,238.61 L439.96,238.86 L441.11,239.10 L441.11,241.40 L442.26,241.63 L443.41,241.86 L444.55,242.09 L445.70,242.31 L446.85,242.54 L447.99,242.76 L449.14,242.99 L450.29,243.21 L451.44,243.43 L452.58,243.65 L453.73,243.87 L454.88,244.09 L456.02,244.30 L457.17,244.52 L458.32,244.73 L459.47,244.95 L460.61,245.16 L461.76,245.37 L462.91,245.58 L464.06,245.79 L465.20,246.00 L466.35,246.21 L467.50,246.41 L468.64,246.62 L469.79,246.82 L470.94,247.02 L472.09,247.23 L473.23,247.43 L474.38,247.63 L475.53,247.83 L476.68,248.03 L477.82,248.22 L478.97,248.42 L480.12,248.62 L481.26,248.81 L482.41,249.00 L483.56,249.20 L484.71,249.39 L484.90,249.42 L484.90,251.26 L485.85,251.41 L487.00,251.59 L488.15,251.77 L489.29,251.96 L490.44,252.14 L491.59,252.31 L492.74,252.49 L493.88,252.67 L495.03,252.85 L496.18,253.02 L497.32,253.20 L498.47,253.37 L499.62,253.55 L500.77,253.72 L501.91,253.89 L503.06,254.06 L504.21,254.23 L505.36,254.40 L506.50,254.57 L507.65,254.73 L508.80,254.90 L509.94,255.07 L511.09,255.23 L512.24,255.40 L513.39,255.56 L514.53,255.72 L515.68,255.88 L516.83,256.04 L517.98,256.20 L519.12,256.36 L520.27,256.52 L521.42,256.68 L522.56,256.84 L523.71,256.99 L524.86,257.15 L526.01,257.30 L527.15,257.46 L528.30,257.61 L529.45,257.76 L530.59,257.91 L531.74,258.07 L532.89,258.22 L532.89,259.67 L534.04,259.82 L535.18,259.96 L536.33,260.10 L537.48,260.25 L538.63,260.39 L539.77,260.53 L540.92,260.67 L542.07,260.81 L543.21,260.95 L544.36,261.08 L545.51,261.22 L546.66,261.36 L547.80,261.49 L548.95,261.63 L550.10,261.76 L551.24,261.90 L552.39,262.03 L553.54,262.16 L554.69,262.30 L555.83,262.43 L556.98,262.56 L558.13,262.69 L559.27,262.82 L560.42,262.95 L561.57,263.08 L562.72,263.21 L563.86,263.33 L565.01,263.46 L566.16,263.59 L567.31,263.71 L568.45,263.84 L569.60,263.96 L570.75,264.08 L571.89,264.21 L573.04,264.33 L574.19,264.45 L575.34,264.57 L576.48,264.69 L576.68,264.71 L576.68,265.90 L577.63,265.99 L578.78,266.11 L579.92,266.22 L581.07,266.34 L582.22,266.45 L583.37,266.56 L584.51,266.68 L585.66,266.79 L586.81,266.90 L587.96,267.01 L589.10,267.12 L590.25,267.23 L591.40,267.34 L592.54,267.45 L593.69,267.56 L594.84,267.67 L595.99,267.78 L597.13,267.88 L598.28,267.99 L599.43,268.10 L600.57,268.20 L601.72,268.31 L602.87,268.41 L604.02,268.52 L605.16,268.62 L606.31,268.72 L607.46,268.83 L608.61,268.93 L609.75,269.03 L610.90,269.13 L612.05,269.23 L613.19,269.33 L614.34,269.43 L615.49,269.53 L616.64,269.63 L617.78,269.73 L618.93,269.83 L620.08,269.92 L621.23,270.02 L622.37,270.12 L623.52,270.21 L624.67,270.31 L624.67,271.27 L625.81,271.36 L626.96,271.45 L628.11,271.54 L629.26,271.63 L630.40,271.72 L631.55,271.81 L632.70,271.90 L633.84,271.99 L634.99,272.08 L636.14,272.17 L637.29,272.26 L638.43,272.35 L639.58,272.43 L640.73,272.52 L641.88,272.61 L643.02,272.69 L644.17,272.78 L645.32,272.86 L646.46,272.95 L647.61,273.03 L648.76,273.12 L649.91,273.20 L651.05,273.29 L652.20,273.37 L653.35,273.45 L654.49,273.53 L655.64,273.62 L656.79,273.70 L657.94,273.78 L659.08,273.86 L660.23,273.94 L661.38,274.02 L662.52,274.10 L663.67,274.18 L664.82,274.26 L665.97,274.34 L667.11,274.42 L668.26,274.49 L668.46,274.51 L668.46,275.30 L669.41,275.36 L670.56,275.43 L671.70,275.51 L672.85,275.58 L674.00,275.66 L675.14,275.73 L676.29,275.80 L677.44,275.88 L678.59,275.95 L679.73,276.02 L680.88,276.09 L682.03,276.17 L683.18,276.24 L684.32,276.31 L685.47,276.38 L686.62,276.45 L687.76,276.52 L688.91,276.59 L690.06,276.66 L691.21,276.73 L692.35,276.80 L693.50,276.87 L694.65,276.93 L695.79,277.00 L696.94,277.07 L698.09,277.14 L699.24,277.20 L700.38,277.27 L701.53,277.34 L702.68,277.40 L703.82,277.47 L704.97,277.54 L706.12,277.60 L707.27,277.67 L708.41,277.73 L709.56,277.80 L710.71,277.86 L711.86,277.92 L713.00,277.99 L714.15,278.05 L715.30,278.11 L716.44,278.18 L716.44,278.83 L717.59,278.89 L718.74,278.95 L719.89,279.01 L721.03,279.07 L722.18,279.13 L723.33,279.19 L724.48,279.25 L725.62,279.31 L726.77,279.37 L727.92,279.42 L729.06,279.48 L730.21,279.54 L731.36,279.60 L732.51,279.65 L733.65,279.71 L734.80,279.77 L735.95,279.83 L737.09,279.88 L738.24,279.94 L739.39,279.99 L740.54,280.05 L741.68,280.11 L742.83,280.16 L743.98,280.22 L745.13,280.27 L746.27,280.33 L747.42,280.38 L748.57,280.44 L749.71,280.49 L750.86,280.54 L752.01,280.60 L753.16,280.65 L754.30,280.70 L755.45,280.76 L756.60,280.81 L757.74,280.86 L758.89,280.91 L760.04,280.97 L761.19,281.02 L762.33,281.07 L763.48,281.12 L764.63,281.17 L765.77,281.22 L766.92,281.27 L768.07,281.32 L769.22,281.37 L770.36,281.42 L771.51,281.47 L772.66,281.52 L773.81,281.57 L774.95,281.62 L776.10,281.67 L777.25,281.72 L778.39,281.77 L779.54,281.82 L780.69,281.87 L781.84,281.92 L782.98,281.96 L784.13,282.01 L785.28,282.06 L786.43,282.11 L787.57,282.15 L788.72,282.20 L789.87,282.25 L791.01,282.29 L792.16,282.34 L793.31,282.39 L794.46,282.43 L795.60,282.48 L796.75,282.52 L797.90,282.57 L799.04,282.62 L800.19,282.66 L801.34,282.71 L802.49,282.75 L803.63,282.80 L804.78,282.84 L805.93,282.88 L807.07,282.93 L808.22,282.97 L808.22,283.46 L809.37,283.50 L810.52,283.54 L811.66,283.59 L812.81,283.63 L813.96,283.67 L815.11,283.71 L816.25,283.75 L817.40,283.79 L818.55,283.83 L819.69,283.88 L820.84,283.92 L821.99,283.96 L823.14,284.00 L824.28,284.04 L825.43,284.08 L826.58,284.12 L827.73,284.16 L828.87,284.20 L830.02,284.24 L831.17,284.28 L832.31,284.32 L833.46,284.36 L834.61,284.40 L835.76,284.43 L836.90,284.47 L838.05,284.51 L839.20,284.55 L840.34,284.59 L841.49,284.63 L842.64,284.66 L843.79,284.70 L844.93,284.74 L846.08,284.78 L847.23,284.81 L848.38,284.85 L849.52,284.89 L850.67,284.93 L851.82,284.96 L852.96,285.00 L854.11,285.04 L855.26,285.07 L856.41,285.11 L857.55,285.15 L858.70,285.18 L859.85,285.22 L860.99,285.25 L862.14,285.29 L863.29,285.32 L864.44,285.36 L865.58,285.39 L866.73,285.43 L867.88,285.46 L869.02,285.50 L870.17,285.53 L871.32,285.57 L872.47,285.60 L873.61,285.64 L874.76,285.67 L875.91,285.71 L877.06,285.74 L878.20,285.77 L879.35,285.81 L880.50,285.84 L881.64,285.87 L882.79,285.91 L883.94,285.94 L885.09,285.97 L886.23,286.01 L887.38,286.04 L888.53,286.07 L889.67,286.11 L890.82,286.14 L891.97,286.17 L893.12,286.20 L894.26,286.23 L895.41,286.27 L896.56,286.30 L897.71,286.33 L898.85,286.36 L900.00,286.39 L900.00,286.76" stroke="#2563eb" stroke-dasharray=""/>
<line class="swatch" x1="20" x2="46" y1="367" y2="367" stroke="#2563eb" stroke-width="2" stroke-dasharray=""/>
<text x="55" y="371">No direct grants · with Mastery</text>
<path class="series" data-series="1" d="M74.00,109.91 L75.15,109.91 L76.29,109.92 L77.44,109.94 L78.59,109.96 L79.74,109.99 L80.88,110.03 L82.03,110.07 L83.18,110.12 L84.32,110.17 L85.47,110.24 L86.62,110.31 L87.77,110.38 L88.91,110.46 L90.06,110.55 L91.21,110.64 L92.36,110.75 L93.50,110.85 L94.65,110.97 L95.80,111.09 L96.94,111.21 L98.09,111.35 L99.24,111.48 L100.39,111.63 L101.53,111.78 L102.68,111.94 L103.83,112.10 L104.98,112.27 L106.12,112.45 L107.27,112.63 L108.42,112.82 L109.56,113.01 L110.71,113.21 L111.86,113.42 L113.01,113.63 L114.15,113.85 L115.30,114.07 L116.45,114.30 L117.59,114.53 L118.74,114.77 L119.89,115.02 L121.04,115.27 L122.18,115.53 L123.33,115.79 L124.48,116.06 L125.63,116.33 L126.77,116.61 L127.92,116.89 L129.07,117.18 L130.21,117.48 L131.36,117.77 L132.51,118.08 L133.66,118.39 L134.80,118.70 L135.95,119.02 L137.10,119.34 L138.24,119.67 L139.39,120.01 L140.54,120.34 L141.69,120.69 L142.83,121.03 L143.98,121.38 L145.13,121.74 L146.27,122.10 L147.42,122.46 L148.57,122.83 L149.72,123.20 L150.86,123.58 L152.01,123.96 L153.16,124.35 L154.31,124.73 L155.45,125.13 L156.60,125.52 L157.75,125.92 L158.89,126.33 L160.04,126.73 L161.19,127.14 L162.34,127.56 L163.48,127.97 L164.63,128.39 L165.78,128.82 L166.93,129.25 L168.07,129.68 L169.22,130.11 L170.37,130.54 L171.51,130.98 L172.66,131.43 L173.81,131.87 L174.96,132.32 L176.10,132.77 L177.25,133.22 L178.40,133.68 L179.54,134.14 L180.69,134.60 L181.84,135.06 L182.99,135.52 L184.13,135.99 L185.28,136.46 L186.43,136.93 L187.57,137.41 L188.72,137.88 L189.87,138.36 L191.02,138.84 L192.16,139.32 L193.31,139.80 L194.46,140.29 L195.61,140.77 L196.75,141.26 L197.90,141.75 L199.05,142.24 L200.19,142.74 L201.34,143.23 L202.30,143.64 L202.30,150.40 L202.49,150.48 L203.64,150.95 L204.78,151.43 L205.93,151.90 L207.08,152.38 L208.22,152.86 L209.37,153.34 L210.52,153.82 L211.67,154.30 L212.81,154.79 L213.96,155.27 L215.11,155.75 L216.26,156.24 L217.40,156.73 L218.55,157.21 L219.70,157.70 L220.84,158.18 L221.99,158.67 L223.14,159.16 L224.29,159.65 L225.43,160.14 L226.58,160.63 L227.73,161.11 L228.88,161.60 L230.02,162.09 L231.17,162.58 L232.32,163.07 L233.46,163.56 L234.61,164.05 L235.76,164.54 L236.91,165.03 L238.05,165.52 L239.20,166.01 L240.35,166.50 L241.49,166.99 L242.64,167.47 L243.79,167.96 L244.94,168.45 L246.08,168.94 L247.23,169.42 L248.38,169.91 L249.53,170.40 L250.67,170.88 L251.82,171.37 L252.97,171.85 L254.11,172.33 L255.26,172.82 L256.41,173.30 L257.56,173.78 L257.56,179.00 L258.70,179.46 L259.85,179.92 L261.00,180.38 L262.14,180.84 L263.29,181.30 L264.44,181.76 L265.59,182.21 L266.73,182.67 L267.88,183.12 L269.03,183.58 L270.18,184.03 L271.32,184.48 L272.47,184.93 L273.62,185.39 L274.76,185.83 L275.91,186.28 L277.06,186.73 L278.21,187.18 L279.35,187.62 L280.50,188.07 L281.65,188.51 L282.79,188.95 L283.94,189.39 L285.09,189.83 L286.24,190.27 L287.38,190.71 L288.53,191.15 L289.68,191.58 L290.82,192.01 L291.97,192.45 L293.12,192.88 L294.27,193.31 L295.41,193.74 L296.56,194.17 L297.71,194.59 L298.86,195.02 L300.00,195.44 L301.15,195.86 L301.34,195.94 L301.34,200.06 L302.30,200.39 L303.44,200.80 L304.59,201.20 L305.74,201.60 L306.89,202.00 L308.03,202.40 L309.18,202.79 L310.33,203.19 L311.48,203.58 L312.62,203.97 L313.77,204.37 L314.92,204.76 L316.06,205.14 L317.21,205.53 L318.36,205.92 L319.51,206.30 L320.65,206.68 L321.80,207.07 L322.95,207.45 L324.09,207.83 L325.24,208.20 L326.39,208.58 L327.54,208.95 L328.68,209.33 L329.83,209.70 L330.98,210.07 L332.13,210.44 L333.27,210.81 L334.42,211.17 L335.57,211.54 L336.71,211.90 L337.86,212.26 L339.01,212.62 L340.16,212.98 L341.30,213.34 L342.45,213.69 L343.60,214.05 L344.74,214.40 L345.89,214.75 L347.04,215.10 L348.19,215.45 L349.33,215.80 L349.33,219.00 L350.48,219.33 L351.63,219.66 L352.78,219.99 L353.92,220.32 L355.07,220.65 L356.22,220.98 L357.36,221.30 L358.51,221.62 L359.66,221.94 L360.81,222.26 L361.95,222.58 L363.10,222.90 L364.25,223.22 L365.39,223.53 L366.54,223.84 L367.69,224.16 L368.84,224.47 L369.98,224.78 L371.13,225.08 L372.28,225.39 L373.43,225.69 L374.57,226.00 L375.72,226.30 L376.87,226.60 L378.01,226.90 L379.16,227.20 L380.31,227.50 L381.46,227.79 L382.60,228.09 L383.75,228.38 L384.90,228.67 L386.04,228.96 L387.19,229.25 L388.34,229.54 L389.49,229.82 L390.63,230.11 L391.78,230.39 L392.93,230.67 L393.12,230.72 L393.12,233.25 L394.07,233.48 L395.22,233.75 L396.37,234.01 L397.52,234.28 L398.66,234.55 L399.81,234.81 L400.96,235.07 L402.11,235.33 L403.25,235.60 L404.40,235.85 L405.55,236.11 L406.69,236.37 L407.84,236.63 L408.99,236.88 L410.14,237.13 L411.28,237.39 L412.43,237.64 L413.58,237.89 L414.72,238.14 L415.87,238.38 L417.02,238.63 L418.17,238.87 L419.31,239.12 L420.46,239.36 L421.61,239.60 L422.76,239.84 L423.90,240.08 L425.05,240.32 L426.20,240.56 L427.34,240.79 L428.49,241.03 L429.64,241.26 L430.79,241.49 L431.93,241.72 L433.08,241.95 L434.23,242.18 L435.38,242.41 L436.52,242.64 L437.67,242.86 L438.82,243.09 L439.96,243.31 L441.11,243.53 L441.11,245.51 L442.26,245.73 L443.41,245.94 L444.55,246.15 L445.70,246.36 L446.85,246.57 L447.99,246.78 L449.14,246.99 L450.29,247.19 L451.44,247.40 L452.58,247.60 L453.73,247.81 L454.88,248.01 L456.02,248.21 L457.17,248.41 L458.32,248.61 L459.47,248.81 L460.61,249.00 L461.76,249.20 L462.91,249.40 L464.06,249.59 L465.20,249.78 L466.35,249.98 L467.50,250.17 L468.64,250.36 L469.79,250.55 L470.94,250.74 L472.09,250.93 L473.23,251.11 L474.38,251.30 L475.53,251.48 L476.68,251.67 L477.82,251.85 L478.97,252.03 L480.12,252.21 L481.26,252.40 L482.41,252.58 L483.56,252.75 L484.71,252.93 L484.90,252.96 L484.90,254.55 L485.85,254.69 L487.00,254.86 L488.15,255.03 L489.29,255.20 L490.44,255.37 L491.59,255.53 L492.74,255.70 L493.88,255.87 L495.03,256.03 L496.18,256.19 L497.32,256.36 L498.47,256.52 L499.62,256.68 L500.77,256.84 L501.91,257.00 L503.06,257.16 L504.21,257.32 L505.36,257.47 L506.50,257.63 L507.65,257.79 L508.80,257.94 L509.94,258.10 L511.09,258.25 L512.24,258.40 L513.39,258.55 L514.53,258.71 L515.68,258.86 L516.83,259.01 L517.98,259.15 L519.12,259.30 L520.27,259.45 L521.42,259.60 L522.56,259.74 L523.71,259.89 L524.86,260.03 L526.01,260.18 L527.15,260.32 L528.30,260.46 L529.45,260.61 L530.59,260.75 L531.74,260.89 L532.89,261.03 L532.89,262.29 L534.04,262.43 L535.18,262.56 L536.33,262.70 L537.48,262.83 L538.63,262.96 L539.77,263.09 L540.92,263.22 L542.07,263.35 L543.21,263.48 L544.36,263.61 L545.51,263.74 L546.66,263.87 L547.80,263.99 L548.95,264.12 L550.10,264.25 L551.24,264.37 L552.39,264.50 L553.54,264.62 L554.69,264.74 L555.83,264.87 L556.98,264.99 L558.13,265.11 L559.27,265.23 L560.42,265.35 L561.57,265.47 L562.72,265.59 L563.86,265.71 L565.01,265.83 L566.16,265.95 L567.31,266.06 L568.45,266.18 L569.60,266.30 L570.75,266.41 L571.89,266.53 L573.04,266.64 L574.19,266.75 L575.34,266.87 L576.48,266.98 L576.68,267.00 L576.68,268.03 L577.63,268.12 L578.78,268.23 L579.92,268.34 L581.07,268.44 L582.22,268.55 L583.37,268.66 L584.51,268.76 L585.66,268.87 L586.81,268.97 L587.96,269.08 L589.10,269.18 L590.25,269.28 L591.40,269.38 L592.54,269.49 L593.69,269.59 L594.84,269.69 L595.99,269.79 L597.13,269.89 L598.28,269.99 L599.43,270.09 L600.57,270.19 L601.72,270.29 L602.87,270.38 L604.02,270.48 L605.16,270.58 L606.31,270.68 L607.46,270.77 L608.61,270.87 L609.75,270.96 L610.90,271.06 L612.05,271.15 L613.19,271.25 L614.34,271.34 L615.49,271.43 L616.64,271.52 L617.78,271.62 L618.93,271.71 L620.08,271.80 L621.23,271.89 L622.37,271.98 L623.52,272.07 L624.67,272.16 L624.67,273.00 L625.81,273.09 L626.96,273.17 L628.11,273.26 L629.26,273.34 L630.40,273.43 L631.55,273.51 L632.70,273.60 L633.84,273.68 L634.99,273.76 L636.14,273.85 L637.29,273.93 L638.43,274.01 L639.58,274.09 L640.73,274.18 L641.88,274.26 L643.02,274.34 L644.17,274.42 L645.32,274.50 L646.46,274.58 L647.61,274.66 L648.76,274.74 L649.91,274.81 L651.05,274.89 L652.20,274.97 L653.35,275.05 L654.49,275.13 L655.64,275.20 L656.79,275.28 L657.94,275.35 L659.08,275.43 L660.23,275.51 L661.38,275.58 L662.52,275.66 L663.67,275.73 L664.82,275.80 L665.97,275.88 L667.11,275.95 L668.26,276.03 L668.46,276.04 L668.46,276.73 L669.41,276.79 L670.56,276.86 L671.70,276.93 L672.85,277.00 L674.00,277.07 L675.14,277.14 L676.29,277.21 L677.44,277.28 L678.59,277.35 L679.73,277.41 L680.88,277.48 L682.03,277.55 L683.18,277.62 L684.32,277.68 L685.47,277.75 L686.62,277.82 L687.76,277.88 L688.91,277.95 L690.06,278.01 L691.21,278.08 L692.35,278.14 L693.50,278.21 L694.65,278.27 L695.79,278.33 L696.94,278.40 L698.09,278.46 L699.24,278.52 L700.38,278.59 L701.53,278.65 L702.68,278.71 L703.82,278.77 L704.97,278.84 L706.12,278.90 L707.27,278.96 L708.41,279.02 L709.56,279.08 L710.71,279.14 L711.86,279.20 L713.00,279.26 L714.15,279.32 L715.30,279.38 L716.44,279.44 L716.44,280.01 L717.59,280.07 L718.74,280.13 L719.89,280.18 L721.03,280.24 L722.18,280.30 L723.33,280.35 L724.48,280.41 L725.62,280.46 L726.77,280.52 L727.92,280.58 L729.06,280.63 L730.21,280.68 L731.36,280.74 L732.51,280.79 L733.65,280.85 L734.80,280.90 L735.95,280.95 L737.09,281.01 L738.24,281.06 L739.39,281.11 L740.54,281.17 L741.68,281.22 L742.83,281.27 L743.98,281.32 L745.13,281.37 L746.27,281.43 L747.42,281.48 L748.57,281.53 L749.71,281.58 L750.86,281.63 L752.01,281.68 L753.16,281.73 L754.30,281.78 L755.45,281.83 L756.60,281.88 L757.74,281.93 L758.89,281.98 L760.04,282.03 L761.19,282.08 L762.33,282.12 L763.48,282.17 L764.63,282.22 L765.77,282.27 L766.92,282.32 L768.07,282.36 L769.22,282.41 L770.36,282.46 L771.51,282.51 L772.66,282.55 L773.81,282.60 L774.95,282.65 L776.10,282.69 L777.25,282.74 L778.39,282.78 L779.54,282.83 L780.69,282.88 L781.84,282.92 L782.98,282.97 L784.13,283.01 L785.28,283.06 L786.43,283.10 L787.57,283.14 L788.72,283.19 L789.87,283.23 L791.01,283.28 L792.16,283.32 L793.31,283.36 L794.46,283.41 L795.60,283.45 L796.75,283.49 L797.90,283.54 L799.04,283.58 L800.19,283.62 L801.34,283.66 L802.49,283.71 L803.63,283.75 L804.78,283.79 L805.93,283.83 L807.07,283.87 L808.22,283.92 L808.22,284.35 L809.37,284.39 L810.52,284.43 L811.66,284.47 L812.81,284.51 L813.96,284.55 L815.11,284.58 L816.25,284.62 L817.40,284.66 L818.55,284.70 L819.69,284.74 L820.84,284.78 L821.99,284.82 L823.14,284.86 L824.28,284.89 L825.43,284.93 L826.58,284.97 L827.73,285.01 L828.87,285.04 L830.02,285.08 L831.17,285.12 L832.31,285.16 L833.46,285.19 L834.61,285.23 L835.76,285.27 L836.90,285.30 L838.05,285.34 L839.20,285.38 L840.34,285.41 L841.49,285.45 L842.64,285.48 L843.79,285.52 L844.93,285.55 L846.08,285.59 L847.23,285.63 L848.38,285.66 L849.52,285.70 L850.67,285.73 L851.82,285.77 L852.96,285.80 L854.11,285.83 L855.26,285.87 L856.41,285.90 L857.55,285.94 L858.70,285.97 L859.85,286.00 L860.99,286.04 L862.14,286.07 L863.29,286.11 L864.44,286.14 L865.58,286.17 L866.73,286.21 L867.88,286.24 L869.02,286.27 L870.17,286.30 L871.32,286.34 L872.47,286.37 L873.61,286.40 L874.76,286.43 L875.91,286.47 L877.06,286.50 L878.20,286.53 L879.35,286.56 L880.50,286.59 L881.64,286.62 L882.79,286.66 L883.94,286.69 L885.09,286.72 L886.23,286.75 L887.38,286.78 L888.53,286.81 L889.67,286.84 L890.82,286.87 L891.97,286.90 L893.12,286.93 L894.26,286.96 L895.41,286.99 L896.56,287.02 L897.71,287.05 L898.85,287.08 L900.00,287.11 L900.00,287.44" stroke="#c05b11" stroke-dasharray="8 4"/>
<line class="swatch" x1="20" x2="46" y1="390" y2="390" stroke="#c05b11" stroke-width="2" stroke-dasharray="8 4"/>
<text x="55" y="394">Leveling efficiency +10 %</text>
<rect data-plot="0" x="70" y="87" width="834" height="216" fill="transparent"/>
</svg>
