<svg xmlns="http://www.w3.org/2000/svg" class="trait-chart" role="img" aria-labelledby="luck-shards-title luck-shards-desc" width="920" height="416" viewBox="0 0 920 416">
<title id="luck-shards-title">Luck / Shards</title>
<desc id="luck-shards-desc">Weight of each missing shard relative to each owned shard. The vertical axis is logarithmic. This is not a drop probability; probability also depends on the shard pool. Trait values use a logarithmic horizontal axis. Mastery is included in the no-direct-grants series. Each grant series adds only its named grant.</desc>
<style>
  .trait-chart { --paper: #fff; --ink: #202731; --muted: #68707e; --grid: #e5e8ed; background: var(--paper); color: var(--ink); font-family: system-ui, -apple-system, sans-serif; }
  .trait-chart text { fill: var(--ink); font-size: 12px; }
  .trait-chart .muted { fill: var(--muted); }
  .trait-chart .chart-title { font-size: 19px; font-weight: 600; }
  .trait-chart .metric { font-size: 13px; font-weight: 500; }
  .trait-chart .grid { stroke: var(--grid); stroke-width: 1; }
  .trait-chart .series { fill: none; stroke-width: 2; stroke-linejoin: round; }
  .trait-chart .hover-guide { stroke: var(--muted); stroke-width: 1; }
  @media (prefers-color-scheme: dark) {
    .trait-chart { --paper: #171b23; --ink: #edf0f5; --muted: #b0b7c2; --grid: #333c48; }
    .trait-chart .series, .trait-chart .swatch, .trait-chart .hover-dot { filter: brightness(1.35); }
  }
</style>
<rect width="100%" height="100%" fill="var(--paper)"/>
<text x="20" y="30" class="chart-title">Luck / Shards</text>
<text x="20" y="52" class="metric">Missing-shard relative weight</text>
<text x="20" y="70" class="muted">multiplier · log scale · higher is better</text>
<rect class="grid" x="70" y="87" width="834" height="216" fill="none"/>
<line class="grid" x1="70" x2="904" y1="299" y2="299"/>
<text x="61" y="303" text-anchor="end">1</text>
<line class="grid" x1="70" x2="904" y1="247" y2="247"/>
<text x="61" y="251" text-anchor="end">10</text>
<line class="grid" x1="70" x2="904" y1="195" y2="195"/>
<text x="61" y="199" text-anchor="end">100</text>
<line class="grid" x1="70" x2="904" y1="143" y2="143"/>
<text x="61" y="147" text-anchor="end">1k</text>
<line class="grid" x1="70" x2="904" y1="91" y2="91"/>
<text x="61" y="95" text-anchor="end">10k</text>
<text x="74" y="323" text-anchor="start">1</text>
<text x="257.55555555555554" y="323" text-anchor="middle">100</text>
<text x="441.1111111111111" y="323" text-anchor="middle">10k</text>
<text x="624.6666666666666" y="323" text-anchor="middle">1m</text>
<text x="900" y="323" text-anchor="end">1b</text>
<text x="487" y="346" text-anchor="middle" class="muted">Trait Units (TU) · log scale</text>
<path class="series" data-series="0" d="M74.00,299.00 L75.15,298.84 L76.29,298.69 L77.44,298.53 L78.59,298.37 L79.74,298.06 L80.88,297.90 L82.03,297.75 L83.18,297.43 L84.32,297.28 L85.47,297.12 L86.62,296.97 L87.77,296.65 L88.91,296.50 L90.06,296.34 L91.21,296.18 L92.36,295.87 L93.50,295.71 L94.65,295.56 L95.80,295.40 L96.94,295.09 L98.09,294.93 L99.24,294.77 L100.39,294.62 L101.53,294.30 L102.68,294.15 L103.83,293.99 L104.98,293.83 L106.12,293.52 L107.27,293.36 L108.42,293.21 L109.56,293.05 L110.71,292.74 L111.86,292.58 L113.01,292.43 L114.15,292.27 L115.30,291.96 L116.45,291.80 L117.59,291.64 L118.74,291.49 L119.89,291.17 L121.04,291.02 L122.18,290.86 L123.33,290.70 L124.48,290.39 L125.63,290.23 L126.77,290.08 L127.92,289.92 L129.07,289.61 L130.21,289.45 L131.36,289.29 L132.51,289.14 L133.66,288.83 L134.80,288.67 L135.95,288.51 L137.10,288.36 L138.24,288.04 L139.39,287.89 L140.54,287.73 L141.69,287.57 L142.83,287.26 L143.98,287.10 L145.13,286.95 L146.27,286.79 L147.42,286.48 L148.57,286.32 L149.72,286.16 L150.86,286.01 L152.01,285.69 L153.16,285.54 L154.31,285.38 L155.45,285.22 L156.60,284.91 L157.75,284.76 L158.89,284.60 L160.04,284.44 L161.19,284.13 L162.34,283.97 L163.48,283.82 L164.63,283.66 L165.78,283.35 L166.93,283.19 L168.07,283.03 L169.22,282.88 L170.37,282.56 L171.51,282.41 L172.66,282.25 L173.81,282.09 L174.96,281.78 L176.10,281.62 L177.25,281.47 L178.40,281.31 L179.54,281.15 L180.69,280.84 L181.84,280.69 L182.99,280.53 L184.13,280.22 L185.28,280.06 L186.43,279.90 L187.57,279.75 L188.72,279.43 L189.87,279.28 L191.02,279.12 L192.16,278.96 L193.31,278.65 L194.46,278.49 L195.61,278.34 L196.75,278.18 L197.90,277.87 L199.05,277.71 L200.19,277.55 L201.34,277.40 L202.30,277.24 L202.30,273.12 L202.49,272.97 L203.64,272.81 L204.78,272.65 L205.93,272.50 L207.08,272.18 L208.22,272.03 L209.37,271.87 L210.52,271.72 L211.67,271.40 L212.81,271.25 L213.96,271.09 L215.11,270.93 L216.26,270.62 L217.40,270.46 L218.55,270.31 L219.70,270.15 L220.84,269.84 L221.99,269.68 L223.14,269.52 L224.29,269.37 L225.43,269.05 L226.58,268.90 L227.73,268.74 L228.88,268.58 L230.02,268.27 L231.17,268.11 L232.32,267.96 L233.46,267.80 L234.61,267.49 L235.76,267.33 L236.91,267.18 L238.05,267.02 L239.20,266.71 L240.35,266.55 L241.49,266.39 L242.64,266.24 L243.79,265.92 L244.94,265.77 L246.08,265.61 L247.23,265.45 L248.38,265.14 L249.53,264.98 L250.67,264.83 L251.82,264.67 L252.97,264.36 L254.11,264.20 L255.26,264.05 L256.41,263.89 L257.56,263.73 L257.56,260.09 L258.70,259.94 L259.85,259.78 L261.00,259.62 L262.14,259.47 L263.29,259.16 L264.44,259.00 L265.59,258.84 L266.73,258.53 L267.88,258.37 L269.03,258.22 L270.18,258.06 L271.32,257.75 L272.47,257.59 L273.62,257.43 L274.76,257.28 L275.91,256.96 L277.06,256.81 L278.21,256.65 L279.35,256.49 L280.50,256.18 L281.65,256.02 L282.79,255.87 L283.94,255.71 L285.09,255.55 L286.24,255.24 L287.38,255.09 L288.53,254.93 L289.68,254.62 L290.82,254.46 L291.97,254.30 L293.12,254.15 L294.27,253.83 L295.41,253.68 L296.56,253.52 L297.71,253.36 L298.86,253.05 L300.00,252.89 L301.15,252.74 L301.34,252.74 L301.34,249.72 L302.30,249.56 L303.44,249.25 L304.59,249.10 L305.74,248.94 L306.89,248.78 L308.03,248.63 L309.18,248.31 L310.33,248.16 L311.48,248.00 L312.62,247.69 L313.77,247.53 L314.92,247.37 L316.06,247.22 L317.21,246.90 L318.36,246.75 L319.51,246.59 L320.65,246.43 L321.80,246.12 L322.95,245.96 L324.09,245.81 L325.24,245.65 L326.39,245.34 L327.54,245.18 L328.68,245.03 L329.83,244.87 L330.98,244.56 L332.13,244.40 L333.27,244.24 L334.42,244.09 L335.57,243.77 L336.71,243.62 L337.86,243.46 L339.01,243.30 L340.16,242.99 L341.30,242.83 L342.45,242.68 L343.60,242.52 L344.74,242.21 L345.89,242.05 L347.04,241.89 L348.19,241.74 L349.33,241.58 L349.33,238.77 L350.48,238.61 L351.63,238.45 L352.78,238.30 L353.92,237.98 L355.07,237.83 L356.22,237.67 L357.36,237.51 L358.51,237.20 L359.66,237.04 L360.81,236.89 L361.95,236.73 L363.10,236.42 L364.25,236.26 L365.39,236.10 L366.54,235.95 L367.69,235.63 L368.84,235.48 L369.98,235.32 L371.13,235.16 L372.28,234.85 L373.43,234.70 L374.57,234.54 L375.72,234.38 L376.87,234.07 L378.01,233.91 L379.16,233.76 L380.31,233.60 L381.46,233.29 L382.60,233.13 L383.75,232.97 L384.90,232.82 L386.04,232.50 L387.19,232.35 L388.34,232.19 L389.49,232.03 L390.63,231.72 L391.78,231.56 L392.93,231.41 L393.12,231.41 L393.12,229.03 L394.07,228.87 L395.22,228.56 L396.37,228.40 L397.52,228.25 L398.66,228.09 L399.81,227.78 L400.96,227.62 L402.11,227.46 L403.25,227.31 L404.40,226.99 L405.55,226.84 L406.69,226.68 L407.84,226.52 L408.99,226.21 L410.14,226.05 L411.28,225.90 L412.43,225.74 L413.58,225.43 L414.72,225.27 L415.87,225.12 L417.02,224.96 L418.17,224.65 L419.31,224.49 L420.46,224.33 L421.61,224.18 L422.76,223.86 L423.90,223.71 L425.05,223.55 L426.20,223.39 L427.34,223.08 L428.49,222.92 L429.64,222.77 L430.79,222.61 L431.93,222.30 L433.08,222.14 L434.23,221.98 L435.38,221.83 L436.52,221.51 L437.67,221.36 L438.82,221.20 L439.96,221.05 L441.11,220.89 L441.11,218.58 L442.26,218.42 L443.41,218.27 L444.55,218.11 L445.70,217.80 L446.85,217.64 L447.99,217.48 L449.14,217.33 L450.29,217.17 L451.44,216.86 L452.58,216.70 L453.73,216.54 L454.88,216.23 L456.02,216.08 L457.17,215.92 L458.32,215.76 L459.47,215.45 L460.61,215.29 L461.76,215.14 L462.91,214.98 L464.06,214.67 L465.20,214.51 L466.35,214.35 L467.50,214.20 L468.64,213.88 L469.79,213.73 L470.94,213.57 L472.09,213.41 L473.23,213.26 L474.38,212.94 L475.53,212.79 L476.68,212.63 L477.82,212.32 L478.97,212.16 L480.12,212.01 L481.26,211.85 L482.41,211.54 L483.56,211.38 L484.71,211.22 L484.90,211.22 L484.90,209.26 L485.85,209.10 L487.00,208.79 L488.15,208.63 L489.29,208.47 L490.44,208.32 L491.59,208.01 L492.74,207.85 L493.88,207.69 L495.03,207.54 L496.18,207.38 L497.32,207.07 L498.47,206.91 L499.62,206.75 L500.77,206.44 L501.91,206.28 L503.06,206.13 L504.21,205.97 L505.36,205.66 L506.50,205.50 L507.65,205.34 L508.80,205.19 L509.94,204.87 L511.09,204.72 L512.24,204.56 L513.39,204.40 L514.53,204.09 L515.68,203.94 L516.83,203.78 L517.98,203.62 L519.12,203.47 L520.27,203.15 L521.42,203.00 L522.56,202.84 L523.71,202.53 L524.86,202.37 L526.01,202.21 L527.15,202.06 L528.30,201.74 L529.45,201.59 L530.59,201.43 L531.74,201.27 L532.89,201.12 L532.89,199.15 L534.04,199.00 L535.18,198.84 L536.33,198.68 L537.48,198.37 L538.63,198.21 L539.77,198.06 L540.92,197.90 L542.07,197.74 L543.21,197.43 L544.36,197.28 L545.51,197.12 L546.66,196.81 L547.80,196.65 L548.95,196.49 L550.10,196.34 L551.24,196.02 L552.39,195.87 L553.54,195.71 L554.69,195.55 L555.83,195.24 L556.98,195.08 L558.13,194.93 L559.27,194.77 L560.42,194.46 L561.57,194.30 L562.72,194.14 L563.86,193.99 L565.01,193.67 L566.16,193.52 L567.31,193.36 L568.45,193.21 L569.60,192.89 L570.75,192.74 L571.89,192.58 L573.04,192.42 L574.19,192.11 L575.34,191.95 L576.48,191.80 L576.68,191.80 L576.68,190.12 L577.63,189.97 L578.78,189.65 L579.92,189.50 L581.07,189.34 L582.22,189.18 L583.37,188.87 L584.51,188.71 L585.66,188.56 L586.81,188.40 L587.96,188.09 L589.10,187.93 L590.25,187.77 L591.40,187.62 L592.54,187.31 L593.69,187.15 L594.84,186.99 L595.99,186.84 L597.13,186.52 L598.28,186.37 L599.43,186.21 L600.57,186.05 L601.72,185.74 L602.87,185.58 L604.02,185.43 L605.16,185.27 L606.31,184.96 L607.46,184.80 L608.61,184.64 L609.75,184.49 L610.90,184.17 L612.05,184.02 L613.19,183.86 L614.34,183.70 L615.49,183.39 L616.64,183.24 L617.78,183.08 L618.93,182.92 L620.08,182.61 L621.23,182.45 L622.37,182.30 L623.52,182.14 L624.67,181.98 L624.67,180.27 L625.81,180.11 L626.96,179.96 L628.11,179.80 L629.26,179.49 L630.40,179.33 L631.55,179.17 L632.70,179.02 L633.84,178.70 L634.99,178.55 L636.14,178.39 L637.29,178.23 L638.43,177.92 L639.58,177.76 L640.73,177.61 L641.88,177.45 L643.02,177.14 L644.17,176.98 L645.32,176.82 L646.46,176.67 L647.61,176.35 L648.76,176.20 L649.91,176.04 L651.05,175.89 L652.20,175.57 L653.35,175.42 L654.49,175.26 L655.64,175.10 L656.79,174.79 L657.94,174.63 L659.08,174.48 L660.23,174.32 L661.38,174.01 L662.52,173.85 L663.67,173.69 L664.82,173.54 L665.97,173.22 L667.11,173.07 L668.26,172.91 L668.46,172.91 L668.46,171.45 L669.41,171.30 L670.56,170.98 L671.70,170.83 L672.85,170.67 L674.00,170.51 L675.14,170.20 L676.29,170.04 L677.44,169.89 L678.59,169.73 L679.73,169.42 L680.88,169.26 L682.03,169.11 L683.18,168.95 L684.32,168.64 L685.47,168.48 L686.62,168.32 L687.76,168.17 L688.91,167.85 L690.06,167.70 L691.21,167.54 L692.35,167.38 L693.50,167.07 L694.65,166.91 L695.79,166.76 L696.94,166.60 L698.09,166.29 L699.24,166.13 L700.38,165.97 L701.53,165.82 L702.68,165.51 L703.82,165.35 L704.97,165.19 L706.12,165.04 L707.27,164.72 L708.41,164.57 L709.56,164.41 L710.71,164.25 L711.86,163.94 L713.00,163.78 L714.15,163.63 L715.30,163.47 L716.44,163.31 L716.44,161.79 L717.59,161.63 L718.74,161.48 L719.89,161.32 L721.03,161.01 L722.18,160.85 L723.33,160.69 L724.48,160.54 L725.62,160.22 L726.77,160.07 L727.92,159.91 L729.06,159.75 L730.21,159.44 L731.36,159.28 L732.51,159.13 L733.65,158.97 L734.80,158.66 L735.95,158.50 L737.09,158.34 L738.24,158.19 L739.39,157.87 L740.54,157.72 L741.68,157.56 L742.83,157.41 L743.98,157.09 L745.13,156.94 L746.27,156.78 L747.42,156.62 L748.57,156.31 L749.71,156.15 L750.86,156.00 L752.01,155.84 L753.16,155.53 L754.30,155.37 L755.45,155.21 L756.60,155.06 L757.74,154.74 L758.89,154.59 L760.04,154.43 L761.19,154.27 L762.33,153.96 L763.48,153.80 L764.63,153.65 L765.77,153.49 L766.92,153.18 L768.07,153.02 L769.22,152.87 L770.36,152.71 L771.51,152.40 L772.66,152.24 L773.81,152.08 L774.95,151.93 L776.10,151.61 L777.25,151.46 L778.39,151.30 L779.54,151.14 L780.69,150.83 L781.84,150.67 L782.98,150.52 L784.13,150.36 L785.28,150.05 L786.43,149.89 L787.57,149.73 L788.72,149.58 L789.87,149.27 L791.01,149.11 L792.16,148.95 L793.31,148.80 L794.46,148.48 L795.60,148.33 L796.75,148.17 L797.90,148.01 L799.04,147.70 L800.19,147.54 L801.34,147.39 L802.49,147.23 L803.63,146.92 L804.78,146.76 L805.93,146.60 L807.07,146.45 L808.22,146.29 L808.22,144.84 L809.37,144.69 L810.52,144.53 L811.66,144.37 L812.81,144.06 L813.96,143.90 L815.11,143.75 L816.25,143.59 L817.40,143.28 L818.55,143.12 L819.69,142.97 L820.84,142.81 L821.99,142.50 L823.14,142.34 L824.28,142.18 L825.43,142.03 L826.58,141.87 L827.73,141.56 L828.87,141.40 L830.02,141.24 L831.17,140.93 L832.31,140.77 L833.46,140.62 L834.61,140.46 L835.76,140.15 L836.90,139.99 L838.05,139.83 L839.20,139.68 L840.34,139.37 L841.49,139.21 L842.64,139.05 L843.79,138.90 L844.93,138.58 L846.08,138.43 L847.23,138.27 L848.38,138.11 L849.52,137.96 L850.67,137.64 L851.82,137.49 L852.96,137.33 L854.11,137.02 L855.26,136.86 L856.41,136.70 L857.55,136.55 L858.70,136.23 L859.85,136.08 L860.99,135.92 L862.14,135.76 L863.29,135.45 L864.44,135.30 L865.58,135.14 L866.73,134.98 L867.88,134.67 L869.02,134.51 L870.17,134.36 L871.32,134.20 L872.47,134.04 L873.61,133.73 L874.76,133.57 L875.91,133.42 L877.06,133.10 L878.20,132.95 L879.35,132.79 L880.50,132.63 L881.64,132.32 L882.79,132.16 L883.94,132.01 L885.09,131.85 L886.23,131.54 L887.38,131.38 L888.53,131.23 L889.67,131.07 L890.82,130.76 L891.97,130.60 L893.12,130.44 L894.26,130.29 L895.41,130.13 L896.56,129.82 L897.71,129.66 L898.85,129.50 L900.00,129.35 L900.00,127.97" stroke="#2563eb" stroke-dasharray=""/>
<line class="swatch" x1="20" x2="46" y1="367" y2="367" stroke="#2563eb" stroke-width="2" stroke-dasharray=""/>
<text x="55" y="371">No direct grants · with Mastery</text>
<path class="series" data-series="1" d="M74.00,262.65 L75.15,262.50 L76.29,262.34 L77.44,262.18 L78.59,262.03 L79.74,261.71 L80.88,261.56 L82.03,261.40 L83.18,261.09 L84.32,260.93 L85.47,260.78 L86.62,260.62 L87.77,260.31 L88.91,260.15 L90.06,259.99 L91.21,259.84 L92.36,259.52 L93.50,259.37 L94.65,259.21 L95.80,259.05 L96.94,258.74 L98.09,258.58 L99.24,258.43 L100.39,258.27 L101.53,257.96 L102.68,257.80 L103.83,257.64 L104.98,257.49 L106.12,257.17 L107.27,257.02 L108.42,256.86 L109.56,256.71 L110.71,256.39 L111.86,256.24 L113.01,256.08 L114.15,255.92 L115.30,255.61 L116.45,255.45 L117.59,255.30 L118.74,255.14 L119.89,254.83 L121.04,254.67 L122.18,254.51 L123.33,254.36 L124.48,254.04 L125.63,253.89 L126.77,253.73 L127.92,253.57 L129.07,253.26 L130.21,253.10 L131.36,252.95 L132.51,252.79 L133.66,252.48 L134.80,252.32 L135.95,252.17 L137.10,252.01 L138.24,251.70 L139.39,251.54 L140.54,251.38 L141.69,251.23 L142.83,250.91 L143.98,250.76 L145.13,250.60 L146.27,250.44 L147.42,250.13 L148.57,249.97 L149.72,249.82 L150.86,249.66 L152.01,249.35 L153.16,249.19 L154.31,249.03 L155.45,248.88 L156.60,248.57 L157.75,248.41 L158.89,248.25 L160.04,248.10 L161.19,247.78 L162.34,247.63 L163.48,247.47 L164.63,247.31 L165.78,247.00 L166.93,246.84 L168.07,246.69 L169.22,246.53 L170.37,246.22 L171.51,246.06 L172.66,245.90 L173.81,245.75 L174.96,245.43 L176.10,245.28 L177.25,245.12 L178.40,244.97 L179.54,244.81 L180.69,244.50 L181.84,244.34 L182.99,244.18 L184.13,243.87 L185.28,243.71 L186.43,243.56 L187.57,243.40 L188.72,243.09 L189.87,242.93 L191.02,242.77 L192.16,242.62 L193.31,242.30 L194.46,242.15 L195.61,241.99 L196.75,241.83 L197.90,241.52 L199.05,241.36 L200.19,241.21 L201.34,241.05 L202.30,240.90 L202.30,240.01 L202.49,239.85 L203.64,239.70 L204.78,239.54 L205.93,239.38 L207.08,239.07 L208.22,238.91 L209.37,238.76 L210.52,238.60 L211.67,238.29 L212.81,238.13 L213.96,237.97 L215.11,237.82 L216.26,237.50 L217.40,237.35 L218.55,237.19 L219.70,237.04 L220.84,236.72 L221.99,236.57 L223.14,236.41 L224.29,236.25 L225.43,235.94 L226.58,235.78 L227.73,235.63 L228.88,235.47 L230.02,235.16 L231.17,235.00 L232.32,234.84 L233.46,234.69 L234.61,234.37 L235.76,234.22 L236.91,234.06 L238.05,233.90 L239.20,233.59 L240.35,233.43 L241.49,233.28 L242.64,233.12 L243.79,232.81 L244.94,232.65 L246.08,232.50 L247.23,232.34 L248.38,232.03 L249.53,231.87 L250.67,231.71 L251.82,231.56 L252.97,231.24 L254.11,231.09 L255.26,230.93 L256.41,230.77 L257.56,230.62 L257.56,229.61 L258.70,229.45 L259.85,229.30 L261.00,229.14 L262.14,228.98 L263.29,228.67 L264.44,228.51 L265.59,228.36 L266.73,228.04 L267.88,227.89 L269.03,227.73 L270.18,227.57 L271.32,227.26 L272.47,227.10 L273.62,226.95 L274.76,226.79 L275.91,226.48 L277.06,226.32 L278.21,226.16 L279.35,226.01 L280.50,225.70 L281.65,225.54 L282.79,225.38 L283.94,225.23 L285.09,225.07 L286.24,224.76 L287.38,224.60 L288.53,224.44 L289.68,224.13 L290.82,223.97 L291.97,223.82 L293.12,223.66 L294.27,223.35 L295.41,223.19 L296.56,223.03 L297.71,222.88 L298.86,222.56 L300.00,222.41 L301.15,222.25 L301.34,222.25 L301.34,221.43 L302.30,221.27 L303.44,220.96 L304.59,220.80 L305.74,220.65 L306.89,220.49 L308.03,220.33 L309.18,220.02 L310.33,219.86 L311.48,219.71 L312.62,219.39 L313.77,219.24 L314.92,219.08 L316.06,218.93 L317.21,218.61 L318.36,218.46 L319.51,218.30 L320.65,218.14 L321.80,217.83 L322.95,217.67 L324.09,217.52 L325.24,217.36 L326.39,217.05 L327.54,216.89 L328.68,216.73 L329.83,216.58 L330.98,216.26 L332.13,216.11 L333.27,215.95 L334.42,215.79 L335.57,215.48 L336.71,215.33 L337.86,215.17 L339.01,215.01 L340.16,214.70 L341.30,214.54 L342.45,214.39 L343.60,214.23 L344.74,213.92 L345.89,213.76 L347.04,213.60 L348.19,213.45 L349.33,213.29 L349.33,212.34 L350.48,212.18 L351.63,212.03 L352.78,211.87 L353.92,211.56 L355.07,211.40 L356.22,211.25 L357.36,211.09 L358.51,210.78 L359.66,210.62 L360.81,210.46 L361.95,210.31 L363.10,209.99 L364.25,209.84 L365.39,209.68 L366.54,209.52 L367.69,209.21 L368.84,209.05 L369.98,208.90 L371.13,208.74 L372.28,208.43 L373.43,208.27 L374.57,208.11 L375.72,207.96 L376.87,207.64 L378.01,207.49 L379.16,207.33 L380.31,207.18 L381.46,206.86 L382.60,206.71 L383.75,206.55 L384.90,206.39 L386.04,206.08 L387.19,205.92 L388.34,205.77 L389.49,205.61 L390.63,205.30 L391.78,205.14 L392.93,204.98 L393.12,204.98 L393.12,204.22 L394.07,204.06 L395.22,203.75 L396.37,203.59 L397.52,203.44 L398.66,203.28 L399.81,202.97 L400.96,202.81 L402.11,202.65 L403.25,202.50 L404.40,202.18 L405.55,202.03 L406.69,201.87 L407.84,201.71 L408.99,201.40 L410.14,201.24 L411.28,201.09 L412.43,200.93 L413.58,200.62 L414.72,200.46 L415.87,200.30 L417.02,200.15 L418.17,199.84 L419.31,199.68 L420.46,199.52 L421.61,199.37 L422.76,199.05 L423.90,198.90 L425.05,198.74 L426.20,198.58 L427.34,198.27 L428.49,198.11 L429.64,197.96 L430.79,197.80 L431.93,197.49 L433.08,197.33 L434.23,197.17 L435.38,197.02 L436.52,196.70 L437.67,196.55 L438.82,196.39 L439.96,196.23 L441.11,196.08 L441.11,195.18 L442.26,195.02 L443.41,194.87 L444.55,194.71 L445.70,194.40 L446.85,194.24 L447.99,194.09 L449.14,193.93 L450.29,193.77 L451.44,193.46 L452.58,193.30 L453.73,193.15 L454.88,192.83 L456.02,192.68 L457.17,192.52 L458.32,192.36 L459.47,192.05 L460.61,191.89 L461.76,191.74 L462.91,191.58 L464.06,191.27 L465.20,191.11 L466.35,190.95 L467.50,190.80 L468.64,190.49 L469.79,190.33 L470.94,190.17 L472.09,190.02 L473.23,189.86 L474.38,189.55 L475.53,189.39 L476.68,189.23 L477.82,188.92 L478.97,188.76 L480.12,188.61 L481.26,188.45 L482.41,188.14 L483.56,187.98 L484.71,187.82 L484.90,187.82 L484.90,187.11 L485.85,186.95 L487.00,186.64 L488.15,186.48 L489.29,186.32 L490.44,186.17 L491.59,185.85 L492.74,185.70 L493.88,185.54 L495.03,185.39 L496.18,185.23 L497.32,184.92 L498.47,184.76 L499.62,184.60 L500.77,184.29 L501.91,184.13 L503.06,183.98 L504.21,183.82 L505.36,183.51 L506.50,183.35 L507.65,183.19 L508.80,183.04 L509.94,182.72 L511.09,182.57 L512.24,182.41 L513.39,182.25 L514.53,181.94 L515.68,181.79 L516.83,181.63 L517.98,181.47 L519.12,181.32 L520.27,181.00 L521.42,180.85 L522.56,180.69 L523.71,180.38 L524.86,180.22 L526.01,180.06 L527.15,179.91 L528.30,179.59 L529.45,179.44 L530.59,179.28 L531.74,179.12 L532.89,178.97 L532.89,178.12 L534.04,177.96 L535.18,177.80 L536.33,177.65 L537.48,177.33 L538.63,177.18 L539.77,177.02 L540.92,176.86 L542.07,176.71 L543.21,176.39 L544.36,176.24 L545.51,176.08 L546.66,175.77 L547.80,175.61 L548.95,175.45 L550.10,175.30 L551.24,174.99 L552.39,174.83 L553.54,174.67 L554.69,174.52 L555.83,174.20 L556.98,174.05 L558.13,173.89 L559.27,173.73 L560.42,173.42 L561.57,173.26 L562.72,173.11 L563.86,172.95 L565.01,172.64 L566.16,172.48 L567.31,172.32 L568.45,172.17 L569.60,171.85 L570.75,171.70 L571.89,171.54 L573.04,171.38 L574.19,171.07 L575.34,170.92 L576.48,170.76 L576.68,170.76 L576.68,170.08 L577.63,169.93 L578.78,169.61 L579.92,169.46 L581.07,169.30 L582.22,169.15 L583.37,168.83 L584.51,168.68 L585.66,168.52 L586.81,168.36 L587.96,168.05 L589.10,167.89 L590.25,167.74 L591.40,167.58 L592.54,167.27 L593.69,167.11 L594.84,166.95 L595.99,166.80 L597.13,166.48 L598.28,166.33 L599.43,166.17 L600.57,166.01 L601.72,165.70 L602.87,165.55 L604.02,165.39 L605.16,165.23 L606.31,164.92 L607.46,164.76 L608.61,164.61 L609.75,164.45 L610.90,164.14 L612.05,163.98 L613.19,163.82 L614.34,163.67 L615.49,163.35 L616.64,163.20 L617.78,163.04 L618.93,162.88 L620.08,162.57 L621.23,162.41 L622.37,162.26 L623.52,162.10 L624.67,161.94 L624.67,161.13 L625.81,160.98 L626.96,160.82 L628.11,160.66 L629.26,160.35 L630.40,160.19 L631.55,160.04 L632.70,159.88 L633.84,159.57 L634.99,159.41 L636.14,159.26 L637.29,159.10 L638.43,158.79 L639.58,158.63 L640.73,158.47 L641.88,158.32 L643.02,158.00 L644.17,157.85 L645.32,157.69 L646.46,157.53 L647.61,157.22 L648.76,157.06 L649.91,156.91 L651.05,156.75 L652.20,156.44 L653.35,156.28 L654.49,156.12 L655.64,155.97 L656.79,155.65 L657.94,155.50 L659.08,155.34 L660.23,155.19 L661.38,154.87 L662.52,154.72 L663.67,154.56 L664.82,154.40 L665.97,154.09 L667.11,153.93 L668.26,153.78 L668.46,153.78 L668.46,153.14 L669.41,152.98 L670.56,152.67 L671.70,152.51 L672.85,152.36 L674.00,152.20 L675.14,151.89 L676.29,151.73 L677.44,151.57 L678.59,151.42 L679.73,151.11 L680.88,150.95 L682.03,150.79 L683.18,150.64 L684.32,150.32 L685.47,150.17 L686.62,150.01 L687.76,149.85 L688.91,149.54 L690.06,149.38 L691.21,149.23 L692.35,149.07 L693.50,148.76 L694.65,148.60 L695.79,148.44 L696.94,148.29 L698.09,147.97 L699.24,147.82 L700.38,147.66 L701.53,147.50 L702.68,147.19 L703.82,147.04 L704.97,146.88 L706.12,146.72 L707.27,146.41 L708.41,146.25 L709.56,146.10 L710.71,145.94 L711.86,145.63 L713.00,145.47 L714.15,145.31 L715.30,145.16 L716.44,145.00 L716.44,144.23 L717.59,144.07 L718.74,143.91 L719.89,143.76 L721.03,143.44 L722.18,143.29 L723.33,143.13 L724.48,142.97 L725.62,142.66 L726.77,142.50 L727.92,142.35 L729.06,142.19 L730.21,141.88 L731.36,141.72 L732.51,141.56 L733.65,141.41 L734.80,141.09 L735.95,140.94 L737.09,140.78 L738.24,140.62 L739.39,140.31 L740.54,140.16 L741.68,140.00 L742.83,139.84 L743.98,139.53 L745.13,139.37 L746.27,139.22 L747.42,139.06 L748.57,138.75 L749.71,138.59 L750.86,138.43 L752.01,138.28 L753.16,137.96 L754.30,137.81 L755.45,137.65 L756.60,137.49 L757.74,137.18 L758.89,137.02 L760.04,136.87 L761.19,136.71 L762.33,136.40 L763.48,136.24 L764.63,136.09 L765.77,135.93 L766.92,135.62 L768.07,135.46 L769.22,135.30 L770.36,135.15 L771.51,134.83 L772.66,134.68 L773.81,134.52 L774.95,134.36 L776.10,134.05 L777.25,133.89 L778.39,133.74 L779.54,133.58 L780.69,133.27 L781.84,133.11 L782.98,132.95 L784.13,132.80 L785.28,132.48 L786.43,132.33 L787.57,132.17 L788.72,132.02 L789.87,131.70 L791.01,131.55 L792.16,131.39 L793.31,131.23 L794.46,130.92 L795.60,130.76 L796.75,130.61 L797.90,130.45 L799.04,130.14 L800.19,129.98 L801.34,129.82 L802.49,129.67 L803.63,129.35 L804.78,129.20 L805.93,129.04 L807.07,128.88 L808.22,128.73 L808.22,127.97 L809.37,127.81 L810.52,127.66 L811.66,127.50 L812.81,127.19 L813.96,127.03 L815.11,126.87 L816.25,126.72 L817.40,126.40 L818.55,126.25 L819.69,126.09 L820.84,125.93 L821.99,125.62 L823.14,125.46 L824.28,125.31 L825.43,125.15 L826.58,125.00 L827.73,124.68 L828.87,124.53 L830.02,124.37 L831.17,124.06 L832.31,123.90 L833.46,123.74 L834.61,123.59 L835.76,123.27 L836.90,123.12 L838.05,122.96 L839.20,122.80 L840.34,122.49 L841.49,122.33 L842.64,122.18 L843.79,122.02 L844.93,121.71 L846.08,121.55 L847.23,121.39 L848.38,121.24 L849.52,121.08 L850.67,120.77 L851.82,120.61 L852.96,120.46 L854.11,120.14 L855.26,119.99 L856.41,119.83 L857.55,119.67 L858.70,119.36 L859.85,119.20 L860.99,119.05 L862.14,118.89 L863.29,118.58 L864.44,118.42 L865.58,118.26 L866.73,118.11 L867.88,117.79 L869.02,117.64 L870.17,117.48 L871.32,117.32 L872.47,117.17 L873.61,116.86 L874.76,116.70 L875.91,116.54 L877.06,116.23 L878.20,116.07 L879.35,115.92 L880.50,115.76 L881.64,115.45 L882.79,115.29 L883.94,115.13 L885.09,114.98 L886.23,114.66 L887.38,114.51 L888.53,114.35 L889.67,114.19 L890.82,113.88 L891.97,113.72 L893.12,113.57 L894.26,113.41 L895.41,113.25 L896.56,112.94 L897.71,112.79 L898.85,112.63 L900.00,112.47 L900.00,111.73" stroke="#c05b11" stroke-dasharray="8 4"/>
<line class="swatch" x1="20" x2="46" y1="390" y2="390" stroke="#c05b11" stroke-width="2" stroke-dasharray="8 4"/>
<text x="55" y="394">Missing-shard weight +400 %</text>
<rect data-plot="0" x="70" y="87" width="834" height="216" fill="transparent"/>
</svg>
