<svg xmlns="http://www.w3.org/2000/svg" class="trait-chart" role="img" aria-labelledby="luck-chance-title luck-chance-desc" width="920" height="416" viewBox="0 0 920 416">
<title id="luck-chance-title">Luck / Chance</title>
<desc id="luck-chance-desc">Chance of a Lucky proc. Mastery and grants scale chance weight, not percentage points; the result approaches 50%. Trait values use a logarithmic horizontal axis. Mastery is included in the no-direct-grants series. Each grant series adds only its named grant.</desc>
<style>
  .trait-chart { --paper: #fff; --ink: #202731; --muted: #68707e; --grid: #e5e8ed; background: var(--paper); color: var(--ink); font-family: system-ui, -apple-system, sans-serif; }
  .trait-chart text { fill: var(--ink); font-size: 12px; }
  .trait-chart .muted { fill: var(--muted); }
  .trait-chart .chart-title { font-size: 19px; font-weight: 600; }
  .trait-chart .metric { font-size: 13px; font-weight: 500; }
  .trait-chart .grid { stroke: var(--grid); stroke-width: 1; }
  .trait-chart .series { fill: none; stroke-width: 2; stroke-linejoin: round; }
  .trait-chart .hover-guide { stroke: var(--muted); stroke-width: 1; }
  @media (prefers-color-scheme: dark) {
    .trait-chart { --paper: #171b23; --ink: #edf0f5; --muted: #b0b7c2; --grid: #333c48; }
    .trait-chart .series, .trait-chart .swatch, .trait-chart .hover-dot { filter: brightness(1.35); }
  }
</style>
<rect width="100%" height="100%" fill="var(--paper)"/>
<text x="20" y="30" class="chart-title">Luck / Chance</text>
<text x="20" y="52" class="metric">Lucky proc chance</text>
<text x="20" y="70" class="muted">% · higher is better</text>
<rect class="grid" x="70" y="87" width="834" height="216" fill="none"/>
<line class="grid" x1="70" x2="904" y1="299" y2="299"/>
<text x="61" y="303" text-anchor="end">0</text>
<line class="grid" x1="70" x2="904" y1="257.4" y2="257.4"/>
<text x="61" y="261.4" text-anchor="end">10</text>
<line class="grid" x1="70" x2="904" y1="215.8" y2="215.8"/>
<text x="61" y="219.8" text-anchor="end">20</text>
<line class="grid" x1="70" x2="904" y1="174.2" y2="174.2"/>
<text x="61" y="178.2" text-anchor="end">30</text>
<line class="grid" x1="70" x2="904" y1="132.6" y2="132.6"/>
<text x="61" y="136.6" text-anchor="end">40</text>
<line class="grid" x1="70" x2="904" y1="91" y2="91"/>
<text x="61" y="95" text-anchor="end">50</text>
<text x="74" y="323" text-anchor="start">1</text>
<text x="257.55555555555554" y="323" text-anchor="middle">100</text>
<text x="441.1111111111111" y="323" text-anchor="middle">10k</text>
<text x="624.6666666666666" y="323" text-anchor="middle">1m</text>
<text x="900" y="323" text-anchor="end">1b</text>
<text x="487" y="346" text-anchor="middle" class="muted">Trait Units (TU) · log scale</text>
<path class="series" data-series="0" d="M74.00,294.84 L75.15,294.84 L76.29,294.83 L77.44,294.81 L78.59,294.78 L79.74,294.75 L80.88,294.71 L82.03,294.67 L83.18,294.61 L84.32,294.55 L85.47,294.49 L86.62,294.41 L87.77,294.33 L88.91,294.24 L90.06,294.15 L91.21,294.05 L92.36,293.94 L93.50,293.82 L94.65,293.70 L95.80,293.57 L96.94,293.43 L98.09,293.29 L99.24,293.14 L100.39,292.99 L101.53,292.82 L102.68,292.65 L103.83,292.48 L104.98,292.29 L106.12,292.10 L107.27,291.91 L108.42,291.70 L109.56,291.49 L110.71,291.28 L111.86,291.06 L113.01,290.83 L114.15,290.60 L115.30,290.35 L116.45,290.11 L117.59,289.85 L118.74,289.60 L119.89,289.33 L121.04,289.06 L122.18,288.78 L123.33,288.50 L124.48,288.21 L125.63,287.92 L126.77,287.62 L127.92,287.31 L129.07,287.00 L130.21,286.68 L131.36,286.36 L132.51,286.03 L133.66,285.70 L134.80,285.36 L135.95,285.02 L137.10,284.67 L138.24,284.32 L139.39,283.96 L140.54,283.59 L141.69,283.22 L142.83,282.85 L143.98,282.47 L145.13,282.09 L146.27,281.70 L147.42,281.31 L148.57,280.91 L149.72,280.51 L150.86,280.10 L152.01,279.69 L153.16,279.28 L154.31,278.86 L155.45,278.44 L156.60,278.01 L157.75,277.58 L158.89,277.14 L160.04,276.70 L161.19,276.26 L162.34,275.82 L163.48,275.37 L164.63,274.91 L165.78,274.46 L166.93,274.00 L168.07,273.53 L169.22,273.06 L170.37,272.59 L171.51,272.12 L172.66,271.64 L173.81,271.17 L174.96,270.68 L176.10,270.20 L177.25,269.71 L178.40,269.22 L179.54,268.72 L180.69,268.23 L181.84,267.73 L182.99,267.23 L184.13,266.72 L185.28,266.22 L186.43,265.71 L187.57,265.20 L188.72,264.69 L189.87,264.17 L191.02,263.65 L192.16,263.14 L193.31,262.61 L194.46,262.09 L195.61,261.57 L196.75,261.04 L197.90,260.51 L199.05,259.98 L200.19,259.45 L201.34,258.92 L202.30,258.47 L202.30,255.27 L202.49,255.18 L203.64,254.61 L204.78,254.05 L205.93,253.48 L207.08,252.91 L208.22,252.34 L209.37,251.77 L210.52,251.20 L211.67,250.62 L212.81,250.05 L213.96,249.48 L215.11,248.90 L216.26,248.33 L217.40,247.75 L218.55,247.18 L219.70,246.60 L220.84,246.02 L221.99,245.45 L223.14,244.87 L224.29,244.29 L225.43,243.72 L226.58,243.14 L227.73,242.56 L228.88,241.99 L230.02,241.41 L231.17,240.83 L232.32,240.26 L233.46,239.68 L234.61,239.11 L235.76,238.53 L236.91,237.96 L238.05,237.38 L239.20,236.81 L240.35,236.23 L241.49,235.66 L242.64,235.09 L243.79,234.52 L244.94,233.95 L246.08,233.38 L247.23,232.81 L248.38,232.24 L249.53,231.67 L250.67,231.11 L251.82,230.54 L252.97,229.97 L254.11,229.41 L255.26,228.85 L256.41,228.28 L257.56,227.72 L257.56,223.59 L258.70,223.02 L259.85,222.45 L261.00,221.87 L262.14,221.30 L263.29,220.74 L264.44,220.17 L265.59,219.60 L266.73,219.04 L267.88,218.48 L269.03,217.92 L270.18,217.36 L271.32,216.80 L272.47,216.25 L273.62,215.69 L274.76,215.14 L275.91,214.59 L277.06,214.04 L278.21,213.49 L279.35,212.95 L280.50,212.41 L281.65,211.86 L282.79,211.32 L283.94,210.79 L285.09,210.25 L286.24,209.72 L287.38,209.19 L288.53,208.66 L289.68,208.13 L290.82,207.60 L291.97,207.08 L293.12,206.55 L294.27,206.03 L295.41,205.52 L296.56,205.00 L297.71,204.48 L298.86,203.97 L300.00,203.46 L301.15,202.95 L301.34,202.87 L301.34,198.72 L302.30,198.30 L303.44,197.79 L304.59,197.29 L305.74,196.79 L306.89,196.29 L308.03,195.79 L309.18,195.29 L310.33,194.80 L311.48,194.31 L312.62,193.82 L313.77,193.34 L314.92,192.85 L316.06,192.37 L317.21,191.89 L318.36,191.42 L319.51,190.94 L320.65,190.47 L321.80,190.00 L322.95,189.53 L324.09,189.07 L325.24,188.60 L326.39,188.14 L327.54,187.68 L328.68,187.23 L329.83,186.77 L330.98,186.32 L332.13,185.87 L333.27,185.42 L334.42,184.98 L335.57,184.54 L336.71,184.10 L337.86,183.66 L339.01,183.22 L340.16,182.79 L341.30,182.36 L342.45,181.93 L343.60,181.50 L344.74,181.07 L345.89,180.65 L347.04,180.23 L348.19,179.81 L349.33,179.40 L349.33,175.65 L350.48,175.24 L351.63,174.84 L352.78,174.43 L353.92,174.03 L355.07,173.63 L356.22,173.23 L357.36,172.84 L358.51,172.44 L359.66,172.05 L360.81,171.66 L361.95,171.28 L363.10,170.89 L364.25,170.51 L365.39,170.13 L366.54,169.75 L367.69,169.37 L368.84,169.00 L369.98,168.63 L371.13,168.26 L372.28,167.89 L373.43,167.52 L374.57,167.16 L375.72,166.80 L376.87,166.44 L378.01,166.08 L379.16,165.73 L380.31,165.37 L381.46,165.02 L382.60,164.67 L383.75,164.33 L384.90,163.98 L386.04,163.64 L387.19,163.30 L388.34,162.96 L389.49,162.62 L390.63,162.29 L391.78,161.95 L392.93,161.62 L393.12,161.56 L393.12,158.38 L394.07,158.12 L395.22,157.80 L396.37,157.48 L397.52,157.16 L398.66,156.85 L399.81,156.53 L400.96,156.22 L402.11,155.92 L403.25,155.61 L404.40,155.30 L405.55,155.00 L406.69,154.70 L407.84,154.40 L408.99,154.10 L410.14,153.80 L411.28,153.51 L412.43,153.22 L413.58,152.93 L414.72,152.64 L415.87,152.35 L417.02,152.06 L418.17,151.78 L419.31,151.50 L420.46,151.22 L421.61,150.94 L422.76,150.66 L423.90,150.38 L425.05,150.11 L426.20,149.84 L427.34,149.57 L428.49,149.30 L429.64,149.03 L430.79,148.76 L431.93,148.50 L433.08,148.24 L434.23,147.98 L435.38,147.72 L436.52,147.46 L437.67,147.20 L438.82,146.95 L439.96,146.69 L441.11,146.44 L441.11,143.86 L442.26,143.61 L443.41,143.37 L444.55,143.13 L445.70,142.89 L446.85,142.66 L447.99,142.42 L449.14,142.19 L450.29,141.95 L451.44,141.72 L452.58,141.49 L453.73,141.26 L454.88,141.04 L456.02,140.81 L457.17,140.59 L458.32,140.36 L459.47,140.14 L460.61,139.92 L461.76,139.70 L462.91,139.48 L464.06,139.27 L465.20,139.05 L466.35,138.84 L467.50,138.63 L468.64,138.41 L469.79,138.20 L470.94,138.00 L472.09,137.79 L473.23,137.58 L474.38,137.38 L475.53,137.17 L476.68,136.97 L477.82,136.77 L478.97,136.57 L480.12,136.37 L481.26,136.17 L482.41,135.97 L483.56,135.78 L484.71,135.58 L484.90,135.55 L484.90,133.46 L485.85,133.31 L487.00,133.12 L488.15,132.94 L489.29,132.76 L490.44,132.57 L491.59,132.39 L492.74,132.21 L493.88,132.03 L495.03,131.86 L496.18,131.68 L497.32,131.50 L498.47,131.33 L499.62,131.16 L500.77,130.98 L501.91,130.81 L503.06,130.64 L504.21,130.47 L505.36,130.30 L506.50,130.13 L507.65,129.97 L508.80,129.80 L509.94,129.64 L511.09,129.47 L512.24,129.31 L513.39,129.15 L514.53,128.99 L515.68,128.83 L516.83,128.67 L517.98,128.51 L519.12,128.35 L520.27,128.20 L521.42,128.04 L522.56,127.89 L523.71,127.73 L524.86,127.58 L526.01,127.43 L527.15,127.28 L528.30,127.13 L529.45,126.98 L530.59,126.83 L531.74,126.68 L532.89,126.54 L532.89,124.88 L534.04,124.74 L535.18,124.60 L536.33,124.46 L537.48,124.33 L538.63,124.19 L539.77,124.05 L540.92,123.92 L542.07,123.78 L543.21,123.65 L544.36,123.51 L545.51,123.38 L546.66,123.25 L547.80,123.12 L548.95,122.99 L550.10,122.86 L551.24,122.73 L552.39,122.60 L553.54,122.48 L554.69,122.35 L555.83,122.22 L556.98,122.10 L558.13,121.97 L559.27,121.85 L560.42,121.73 L561.57,121.60 L562.72,121.48 L563.86,121.36 L565.01,121.24 L566.16,121.12 L567.31,121.00 L568.45,120.88 L569.60,120.77 L570.75,120.65 L571.89,120.53 L573.04,120.42 L574.19,120.30 L575.34,120.19 L576.48,120.07 L576.68,120.05 L576.68,118.73 L577.63,118.64 L578.78,118.53 L579.92,118.42 L581.07,118.32 L582.22,118.21 L583.37,118.10 L584.51,118.00 L585.66,117.89 L586.81,117.79 L587.96,117.69 L589.10,117.58 L590.25,117.48 L591.40,117.38 L592.54,117.28 L593.69,117.18 L594.84,117.08 L595.99,116.98 L597.13,116.88 L598.28,116.78 L599.43,116.68 L600.57,116.58 L601.72,116.49 L602.87,116.39 L604.02,116.29 L605.16,116.20 L606.31,116.10 L607.46,116.01 L608.61,115.92 L609.75,115.82 L610.90,115.73 L612.05,115.64 L613.19,115.55 L614.34,115.45 L615.49,115.36 L616.64,115.27 L617.78,115.18 L618.93,115.09 L620.08,115.00 L621.23,114.92 L622.37,114.83 L623.52,114.74 L624.67,114.65 L624.67,113.60 L625.81,113.52 L626.96,113.43 L628.11,113.35 L629.26,113.27 L630.40,113.19 L631.55,113.11 L632.70,113.02 L633.84,112.94 L634.99,112.86 L636.14,112.79 L637.29,112.71 L638.43,112.63 L639.58,112.55 L640.73,112.47 L641.88,112.39 L643.02,112.32 L644.17,112.24 L645.32,112.16 L646.46,112.09 L647.61,112.01 L648.76,111.94 L649.91,111.86 L651.05,111.79 L652.20,111.72 L653.35,111.64 L654.49,111.57 L655.64,111.50 L656.79,111.42 L657.94,111.35 L659.08,111.28 L660.23,111.21 L661.38,111.14 L662.52,111.07 L663.67,111.00 L664.82,110.93 L665.97,110.86 L667.11,110.79 L668.26,110.72 L668.46,110.71 L668.46,109.85 L669.41,109.80 L670.56,109.73 L671.70,109.67 L672.85,109.60 L674.00,109.54 L675.14,109.48 L676.29,109.41 L677.44,109.35 L678.59,109.29 L679.73,109.22 L680.88,109.16 L682.03,109.10 L683.18,109.04 L684.32,108.97 L685.47,108.91 L686.62,108.85 L687.76,108.79 L688.91,108.73 L690.06,108.67 L691.21,108.61 L692.35,108.55 L693.50,108.49 L694.65,108.43 L695.79,108.37 L696.94,108.32 L698.09,108.26 L699.24,108.20 L700.38,108.14 L701.53,108.09 L702.68,108.03 L703.82,107.97 L704.97,107.92 L706.12,107.86 L707.27,107.80 L708.41,107.75 L709.56,107.69 L710.71,107.64 L711.86,107.58 L713.00,107.53 L714.15,107.47 L715.30,107.42 L716.44,107.37 L716.44,106.68 L717.59,106.63 L718.74,106.58 L719.89,106.52 L721.03,106.47 L722.18,106.42 L723.33,106.37 L724.48,106.32 L725.62,106.27 L726.77,106.22 L727.92,106.17 L729.06,106.12 L730.21,106.08 L731.36,106.03 L732.51,105.98 L733.65,105.93 L734.80,105.88 L735.95,105.84 L737.09,105.79 L738.24,105.74 L739.39,105.69 L740.54,105.65 L741.68,105.60 L742.83,105.55 L743.98,105.51 L745.13,105.46 L746.27,105.42 L747.42,105.37 L748.57,105.33 L749.71,105.28 L750.86,105.24 L752.01,105.19 L753.16,105.15 L754.30,105.10 L755.45,105.06 L756.60,105.01 L757.74,104.97 L758.89,104.93 L760.04,104.88 L761.19,104.84 L762.33,104.80 L763.48,104.75 L764.63,104.71 L765.77,104.67 L766.92,104.63 L768.07,104.59 L769.22,104.54 L770.36,104.50 L771.51,104.46 L772.66,104.42 L773.81,104.38 L774.95,104.34 L776.10,104.30 L777.25,104.26 L778.39,104.22 L779.54,104.18 L780.69,104.14 L781.84,104.10 L782.98,104.06 L784.13,104.02 L785.28,103.98 L786.43,103.94 L787.57,103.90 L788.72,103.86 L789.87,103.82 L791.01,103.78 L792.16,103.75 L793.31,103.71 L794.46,103.67 L795.60,103.63 L796.75,103.60 L797.90,103.56 L799.04,103.52 L800.19,103.48 L801.34,103.45 L802.49,103.41 L803.63,103.37 L804.78,103.34 L805.93,103.30 L807.07,103.26 L808.22,103.23 L808.22,102.73 L809.37,102.69 L810.52,102.66 L811.66,102.62 L812.81,102.59 L813.96,102.56 L815.11,102.52 L816.25,102.49 L817.40,102.46 L818.55,102.42 L819.69,102.39 L820.84,102.36 L821.99,102.32 L823.14,102.29 L824.28,102.26 L825.43,102.23 L826.58,102.19 L827.73,102.16 L828.87,102.13 L830.02,102.10 L831.17,102.07 L832.31,102.03 L833.46,102.00 L834.61,101.97 L835.76,101.94 L836.90,101.91 L838.05,101.88 L839.20,101.85 L840.34,101.82 L841.49,101.79 L842.64,101.76 L843.79,101.73 L844.93,101.70 L846.08,101.67 L847.23,101.64 L848.38,101.61 L849.52,101.58 L850.67,101.55 L851.82,101.52 L852.96,101.49 L854.11,101.46 L855.26,101.43 L856.41,101.40 L857.55,101.37 L858.70,101.34 L859.85,101.31 L860.99,101.29 L862.14,101.26 L863.29,101.23 L864.44,101.20 L865.58,101.17 L866.73,101.15 L867.88,101.12 L869.02,101.09 L870.17,101.06 L871.32,101.03 L872.47,101.01 L873.61,100.98 L874.76,100.95 L875.91,100.93 L877.06,100.90 L878.20,100.87 L879.35,100.85 L880.50,100.82 L881.64,100.79 L882.79,100.77 L883.94,100.74 L885.09,100.71 L886.23,100.69 L887.38,100.66 L888.53,100.64 L889.67,100.61 L890.82,100.58 L891.97,100.56 L893.12,100.53 L894.26,100.51 L895.41,100.48 L896.56,100.46 L897.71,100.43 L898.85,100.41 L900.00,100.38 L900.00,100.01" stroke="#2563eb" stroke-dasharray=""/>
<line class="swatch" x1="20" x2="46" y1="367" y2="367" stroke="#2563eb" stroke-width="2" stroke-dasharray=""/>
<text x="55" y="371">No direct grants · with Mastery</text>
<path class="series" data-series="1" d="M74.00,288.90 L75.15,288.89 L76.29,288.87 L77.44,288.83 L78.59,288.77 L79.74,288.69 L80.88,288.60 L82.03,288.50 L83.18,288.37 L84.32,288.23 L85.47,288.07 L86.62,287.90 L87.77,287.71 L88.91,287.50 L90.06,287.28 L91.21,287.04 L92.36,286.79 L93.50,286.52 L94.65,286.24 L95.80,285.94 L96.94,285.62 L98.09,285.29 L99.24,284.95 L100.39,284.59 L101.53,284.21 L102.68,283.82 L103.83,283.42 L104.98,283.00 L106.12,282.57 L107.27,282.13 L108.42,281.67 L109.56,281.20 L110.71,280.72 L111.86,280.22 L113.01,279.71 L114.15,279.19 L115.30,278.65 L116.45,278.11 L117.59,277.55 L118.74,276.98 L119.89,276.40 L121.04,275.81 L122.18,275.21 L123.33,274.60 L124.48,273.98 L125.63,273.34 L126.77,272.70 L127.92,272.05 L129.07,271.39 L130.21,270.72 L131.36,270.04 L132.51,269.35 L133.66,268.66 L134.80,267.96 L135.95,267.25 L137.10,266.53 L138.24,265.80 L139.39,265.07 L140.54,264.33 L141.69,263.59 L142.83,262.84 L143.98,262.08 L145.13,261.31 L146.27,260.55 L147.42,259.77 L148.57,258.99 L149.72,258.21 L150.86,257.42 L152.01,256.63 L153.16,255.83 L154.31,255.03 L155.45,254.23 L156.60,253.42 L157.75,252.61 L158.89,251.80 L160.04,250.98 L161.19,250.16 L162.34,249.34 L163.48,248.52 L164.63,247.69 L165.78,246.87 L166.93,246.04 L168.07,245.21 L169.22,244.38 L170.37,243.55 L171.51,242.71 L172.66,241.88 L173.81,241.05 L174.96,240.21 L176.10,239.38 L177.25,238.54 L178.40,237.71 L179.54,236.87 L180.69,236.04 L181.84,235.21 L182.99,234.38 L184.13,233.55 L185.28,232.72 L186.43,231.89 L187.57,231.06 L188.72,230.23 L189.87,229.41 L191.02,228.58 L192.16,227.76 L193.31,226.94 L194.46,226.13 L195.61,225.31 L196.75,224.50 L197.90,223.69 L199.05,222.88 L200.19,222.07 L201.34,221.27 L202.30,220.60 L202.30,218.67 L202.49,218.54 L203.64,217.74 L204.78,216.93 L205.93,216.13 L207.08,215.34 L208.22,214.55 L209.37,213.76 L210.52,212.97 L211.67,212.19 L212.81,211.41 L213.96,210.63 L215.11,209.86 L216.26,209.10 L217.40,208.33 L218.55,207.57 L219.70,206.82 L220.84,206.06 L221.99,205.31 L223.14,204.57 L224.29,203.83 L225.43,203.09 L226.58,202.36 L227.73,201.63 L228.88,200.91 L230.02,200.19 L231.17,199.47 L232.32,198.76 L233.46,198.05 L234.61,197.35 L235.76,196.65 L236.91,195.95 L238.05,195.26 L239.20,194.58 L240.35,193.90 L241.49,193.22 L242.64,192.54 L243.79,191.88 L244.94,191.21 L246.08,190.55 L247.23,189.89 L248.38,189.24 L249.53,188.59 L250.67,187.95 L251.82,187.31 L252.97,186.68 L254.11,186.05 L255.26,185.42 L256.41,184.80 L257.56,184.18 L257.56,182.24 L258.70,181.63 L259.85,181.03 L261.00,180.43 L262.14,179.83 L263.29,179.24 L264.44,178.65 L265.59,178.06 L266.73,177.48 L267.88,176.91 L269.03,176.34 L270.18,175.77 L271.32,175.21 L272.47,174.65 L273.62,174.09 L274.76,173.54 L275.91,173.00 L277.06,172.45 L278.21,171.91 L279.35,171.38 L280.50,170.85 L281.65,170.33 L282.79,169.80 L283.94,169.29 L285.09,168.77 L286.24,168.26 L287.38,167.76 L288.53,167.25 L289.68,166.76 L290.82,166.26 L291.97,165.77 L293.12,165.28 L294.27,164.80 L295.41,164.32 L296.56,163.85 L297.71,163.38 L298.86,162.91 L300.00,162.44 L301.15,161.98 L301.34,161.90 L301.34,160.22 L302.30,159.84 L303.44,159.39 L304.59,158.95 L305.74,158.51 L306.89,158.07 L308.03,157.64 L309.18,157.21 L310.33,156.78 L311.48,156.36 L312.62,155.94 L313.77,155.52 L314.92,155.11 L316.06,154.70 L317.21,154.29 L318.36,153.89 L319.51,153.49 L320.65,153.09 L321.80,152.69 L322.95,152.30 L324.09,151.92 L325.24,151.53 L326.39,151.15 L327.54,150.77 L328.68,150.40 L329.83,150.03 L330.98,149.66 L332.13,149.29 L333.27,148.93 L334.42,148.57 L335.57,148.21 L336.71,147.86 L337.86,147.50 L339.01,147.16 L340.16,146.81 L341.30,146.47 L342.45,146.13 L343.60,145.79 L344.74,145.45 L345.89,145.12 L347.04,144.79 L348.19,144.46 L349.33,144.14 L349.33,142.76 L350.48,142.45 L351.63,142.13 L352.78,141.82 L353.92,141.51 L355.07,141.21 L356.22,140.90 L357.36,140.60 L358.51,140.30 L359.66,140.00 L360.81,139.71 L361.95,139.42 L363.10,139.13 L364.25,138.84 L365.39,138.56 L366.54,138.27 L367.69,137.99 L368.84,137.72 L369.98,137.44 L371.13,137.17 L372.28,136.89 L373.43,136.63 L374.57,136.36 L375.72,136.09 L376.87,135.83 L378.01,135.57 L379.16,135.31 L380.31,135.05 L381.46,134.80 L382.60,134.54 L383.75,134.29 L384.90,134.04 L386.04,133.80 L387.19,133.55 L388.34,133.31 L389.49,133.07 L390.63,132.83 L391.78,132.59 L392.93,132.35 L393.12,132.32 L393.12,131.20 L394.07,131.01 L395.22,130.79 L396.37,130.56 L397.52,130.34 L398.66,130.11 L399.81,129.89 L400.96,129.68 L402.11,129.46 L403.25,129.24 L404.40,129.03 L405.55,128.82 L406.69,128.61 L407.84,128.40 L408.99,128.19 L410.14,127.99 L411.28,127.78 L412.43,127.58 L413.58,127.38 L414.72,127.18 L415.87,126.98 L417.02,126.78 L418.17,126.59 L419.31,126.40 L420.46,126.20 L421.61,126.01 L422.76,125.82 L423.90,125.64 L425.05,125.45 L426.20,125.27 L427.34,125.08 L428.49,124.90 L429.64,124.72 L430.79,124.54 L431.93,124.36 L433.08,124.18 L434.23,124.01 L435.38,123.84 L436.52,123.66 L437.67,123.49 L438.82,123.32 L439.96,123.15 L441.11,122.98 L441.11,122.11 L442.26,121.94 L443.41,121.78 L444.55,121.62 L445.70,121.46 L446.85,121.30 L447.99,121.15 L449.14,120.99 L450.29,120.84 L451.44,120.68 L452.58,120.53 L453.73,120.38 L454.88,120.23 L456.02,120.08 L457.17,119.93 L458.32,119.78 L459.47,119.64 L460.61,119.49 L461.76,119.35 L462.91,119.21 L464.06,119.06 L465.20,118.92 L466.35,118.78 L467.50,118.64 L468.64,118.51 L469.79,118.37 L470.94,118.23 L472.09,118.10 L473.23,117.96 L474.38,117.83 L475.53,117.70 L476.68,117.57 L477.82,117.44 L478.97,117.31 L480.12,117.18 L481.26,117.05 L482.41,116.92 L483.56,116.80 L484.71,116.67 L484.90,116.65 L484.90,115.95 L485.85,115.85 L487.00,115.73 L488.15,115.61 L489.29,115.49 L490.44,115.37 L491.59,115.25 L492.74,115.14 L493.88,115.02 L495.03,114.91 L496.18,114.79 L497.32,114.68 L498.47,114.57 L499.62,114.45 L500.77,114.34 L501.91,114.23 L503.06,114.12 L504.21,114.02 L505.36,113.91 L506.50,113.80 L507.65,113.69 L508.80,113.59 L509.94,113.48 L511.09,113.38 L512.24,113.28 L513.39,113.17 L514.53,113.07 L515.68,112.97 L516.83,112.87 L517.98,112.77 L519.12,112.67 L520.27,112.57 L521.42,112.47 L522.56,112.37 L523.71,112.28 L524.86,112.18 L526.01,112.08 L527.15,111.99 L528.30,111.89 L529.45,111.80 L530.59,111.71 L531.74,111.61 L532.89,111.52 L532.89,110.96 L534.04,110.87 L535.18,110.78 L536.33,110.69 L537.48,110.61 L538.63,110.52 L539.77,110.43 L540.92,110.35 L542.07,110.26 L543.21,110.18 L544.36,110.09 L545.51,110.01 L546.66,109.93 L547.80,109.84 L548.95,109.76 L550.10,109.68 L551.24,109.60 L552.39,109.52 L553.54,109.44 L554.69,109.36 L555.83,109.28 L556.98,109.20 L558.13,109.12 L559.27,109.04 L560.42,108.97 L561.57,108.89 L562.72,108.81 L563.86,108.74 L565.01,108.66 L566.16,108.59 L567.31,108.51 L568.45,108.44 L569.60,108.37 L570.75,108.29 L571.89,108.22 L573.04,108.15 L574.19,108.08 L575.34,108.01 L576.48,107.93 L576.68,107.92 L576.68,107.46 L577.63,107.41 L578.78,107.34 L579.92,107.27 L581.07,107.20 L582.22,107.14 L583.37,107.07 L584.51,107.00 L585.66,106.94 L586.81,106.87 L587.96,106.81 L589.10,106.74 L590.25,106.68 L591.40,106.61 L592.54,106.55 L593.69,106.49 L594.84,106.43 L595.99,106.36 L597.13,106.30 L598.28,106.24 L599.43,106.18 L600.57,106.12 L601.72,106.06 L602.87,106.00 L604.02,105.94 L605.16,105.88 L606.31,105.82 L607.46,105.76 L608.61,105.70 L609.75,105.64 L610.90,105.58 L612.05,105.53 L613.19,105.47 L614.34,105.41 L615.49,105.36 L616.64,105.30 L617.78,105.24 L618.93,105.19 L620.08,105.13 L621.23,105.08 L622.37,105.02 L623.52,104.97 L624.67,104.92 L624.67,104.54 L625.81,104.49 L626.96,104.44 L628.11,104.39 L629.26,104.34 L630.40,104.29 L631.55,104.23 L632.70,104.18 L633.84,104.13 L634.99,104.08 L636.14,104.03 L637.29,103.98 L638.43,103.94 L639.58,103.89 L640.73,103.84 L641.88,103.79 L643.02,103.74 L644.17,103.69 L645.32,103.65 L646.46,103.60 L647.61,103.55 L648.76,103.50 L649.91,103.46 L651.05,103.41 L652.20,103.37 L653.35,103.32 L654.49,103.27 L655.64,103.23 L656.79,103.18 L657.94,103.14 L659.08,103.09 L660.23,103.05 L661.38,103.01 L662.52,102.96 L663.67,102.92 L664.82,102.87 L665.97,102.83 L667.11,102.79 L668.26,102.75 L668.46,102.74 L668.46,102.43 L669.41,102.40 L670.56,102.35 L671.70,102.31 L672.85,102.27 L674.00,102.23 L675.14,102.19 L676.29,102.15 L677.44,102.11 L678.59,102.07 L679.73,102.03 L680.88,101.99 L682.03,101.95 L683.18,101.92 L684.32,101.88 L685.47,101.84 L686.62,101.80 L687.76,101.76 L688.91,101.72 L690.06,101.69 L691.21,101.65 L692.35,101.61 L693.50,101.57 L694.65,101.54 L695.79,101.50 L696.94,101.46 L698.09,101.43 L699.24,101.39 L700.38,101.36 L701.53,101.32 L702.68,101.28 L703.82,101.25 L704.97,101.21 L706.12,101.18 L707.27,101.14 L708.41,101.11 L709.56,101.07 L710.71,101.04 L711.86,101.01 L713.00,100.97 L714.15,100.94 L715.30,100.90 L716.44,100.87 L716.44,100.62 L717.59,100.58 L718.74,100.55 L719.89,100.52 L721.03,100.49 L722.18,100.45 L723.33,100.42 L724.48,100.39 L725.62,100.36 L726.77,100.33 L727.92,100.30 L729.06,100.27 L730.21,100.24 L731.36,100.20 L732.51,100.17 L733.65,100.14 L734.80,100.11 L735.95,100.08 L737.09,100.05 L738.24,100.02 L739.39,99.99 L740.54,99.96 L741.68,99.94 L742.83,99.91 L743.98,99.88 L745.13,99.85 L746.27,99.82 L747.42,99.79 L748.57,99.76 L749.71,99.73 L750.86,99.71 L752.01,99.68 L753.16,99.65 L754.30,99.62 L755.45,99.59 L756.60,99.57 L757.74,99.54 L758.89,99.51 L760.04,99.48 L761.19,99.46 L762.33,99.43 L763.48,99.40 L764.63,99.38 L765.77,99.35 L766.92,99.32 L768.07,99.30 L769.22,99.27 L770.36,99.25 L771.51,99.22 L772.66,99.19 L773.81,99.17 L774.95,99.14 L776.10,99.12 L777.25,99.09 L778.39,99.07 L779.54,99.04 L780.69,99.02 L781.84,98.99 L782.98,98.97 L784.13,98.94 L785.28,98.92 L786.43,98.89 L787.57,98.87 L788.72,98.84 L789.87,98.82 L791.01,98.80 L792.16,98.77 L793.31,98.75 L794.46,98.72 L795.60,98.70 L796.75,98.68 L797.90,98.65 L799.04,98.63 L800.19,98.61 L801.34,98.58 L802.49,98.56 L803.63,98.54 L804.78,98.52 L805.93,98.49 L807.07,98.47 L808.22,98.45 L808.22,98.26 L809.37,98.24 L810.52,98.22 L811.66,98.19 L812.81,98.17 L813.96,98.15 L815.11,98.13 L816.25,98.11 L817.40,98.09 L818.55,98.07 L819.69,98.05 L820.84,98.03 L821.99,98.00 L823.14,97.98 L824.28,97.96 L825.43,97.94 L826.58,97.92 L827.73,97.90 L828.87,97.88 L830.02,97.86 L831.17,97.84 L832.31,97.82 L833.46,97.80 L834.61,97.78 L835.76,97.76 L836.90,97.74 L838.05,97.72 L839.20,97.70 L840.34,97.68 L841.49,97.67 L842.64,97.65 L843.79,97.63 L844.93,97.61 L846.08,97.59 L847.23,97.57 L848.38,97.55 L849.52,97.53 L850.67,97.51 L851.82,97.50 L852.96,97.48 L854.11,97.46 L855.26,97.44 L856.41,97.42 L857.55,97.40 L858.70,97.39 L859.85,97.37 L860.99,97.35 L862.14,97.33 L863.29,97.31 L864.44,97.30 L865.58,97.28 L866.73,97.26 L867.88,97.24 L869.02,97.23 L870.17,97.21 L871.32,97.19 L872.47,97.17 L873.61,97.16 L874.76,97.14 L875.91,97.12 L877.06,97.11 L878.20,97.09 L879.35,97.07 L880.50,97.06 L881.64,97.04 L882.79,97.02 L883.94,97.01 L885.09,96.99 L886.23,96.97 L887.38,96.96 L888.53,96.94 L889.67,96.92 L890.82,96.91 L891.97,96.89 L893.12,96.88 L894.26,96.86 L895.41,96.84 L896.56,96.83 L897.71,96.81 L898.85,96.80 L900.00,96.78 L900.00,96.64" stroke="#c05b11" stroke-dasharray="8 4"/>
<line class="swatch" x1="20" x2="46" y1="390" y2="390" stroke="#c05b11" stroke-width="2" stroke-dasharray="8 4"/>
<text x="55" y="394">Chance weight +150 %</text>
<rect data-plot="0" x="70" y="87" width="834" height="216" fill="transparent"/>
</svg>
