<svg xmlns="http://www.w3.org/2000/svg" class="trait-chart" role="img" aria-labelledby="stamina-recovery-title stamina-recovery-desc" width="920" height="439" viewBox="0 0 920 439">
<title id="stamina-recovery-title">Stamina / Recovery</title>
<desc id="stamina-recovery-desc">Stamina recovered per minute, including Mastery. The vertical axis is logarithmic. This is a rate, not time to refill a separate Reserve build. Trait values use a logarithmic horizontal axis. Mastery is included in the no-direct-grants series. Each grant series adds only its named grant.</desc>
<style>
  .trait-chart { --paper: #fff; --ink: #202731; --muted: #68707e; --grid: #e5e8ed; background: var(--paper); color: var(--ink); font-family: system-ui, -apple-system, sans-serif; }
  .trait-chart text { fill: var(--ink); font-size: 12px; }
  .trait-chart .muted { fill: var(--muted); }
  .trait-chart .chart-title { font-size: 19px; font-weight: 600; }
  .trait-chart .metric { font-size: 13px; font-weight: 500; }
  .trait-chart .grid { stroke: var(--grid); stroke-width: 1; }
  .trait-chart .series { fill: none; stroke-width: 2; stroke-linejoin: round; }
  .trait-chart .hover-guide { stroke: var(--muted); stroke-width: 1; }
  @media (prefers-color-scheme: dark) {
    .trait-chart { --paper: #171b23; --ink: #edf0f5; --muted: #b0b7c2; --grid: #333c48; }
    .trait-chart .series, .trait-chart .swatch, .trait-chart .hover-dot { filter: brightness(1.35); }
  }
</style>
<rect width="100%" height="100%" fill="var(--paper)"/>
<text x="20" y="30" class="chart-title">Stamina / Recovery</text>
<text x="20" y="52" class="metric">Stamina recovery</text>
<text x="20" y="70" class="muted">Stamina / min · log scale · higher is better</text>
<rect class="grid" x="70" y="87" width="834" height="216" fill="none"/>
<line class="grid" x1="70" x2="904" y1="299" y2="299"/>
<text x="61" y="303" text-anchor="end">1</text>
<line class="grid" x1="70" x2="904" y1="229.66666666666669" y2="229.66666666666669"/>
<text x="61" y="233.66666666666669" text-anchor="end">100</text>
<line class="grid" x1="70" x2="904" y1="160.33333333333334" y2="160.33333333333334"/>
<text x="61" y="164.33333333333334" text-anchor="end">10k</text>
<line class="grid" x1="70" x2="904" y1="91" y2="91"/>
<text x="61" y="95" text-anchor="end">1m</text>
<text x="74" y="323" text-anchor="start">1</text>
<text x="257.55555555555554" y="323" text-anchor="middle">100</text>
<text x="441.1111111111111" y="323" text-anchor="middle">10k</text>
<text x="624.6666666666666" y="323" text-anchor="middle">1m</text>
<text x="900" y="323" text-anchor="end">1b</text>
<text x="487" y="346" text-anchor="middle" class="muted">Trait Units (TU) · log scale</text>
<path class="series" data-series="0" d="M74.00,276.02 L75.15,276.01 L76.29,276.00 L77.44,275.98 L78.59,275.97 L79.74,275.96 L80.88,275.94 L82.03,275.92 L83.18,275.91 L84.32,275.90 L85.47,275.88 L86.62,275.86 L87.77,275.85 L88.91,275.83 L90.06,275.81 L91.21,275.79 L92.36,275.78 L93.50,275.76 L94.65,275.75 L95.80,275.73 L96.94,275.71 L98.09,275.69 L99.24,275.67 L100.39,275.66 L101.53,275.64 L102.68,275.62 L103.83,275.60 L104.98,275.58 L106.12,275.57 L107.27,275.55 L108.42,275.53 L109.56,275.51 L110.71,275.49 L111.86,275.47 L113.01,275.45 L114.15,275.43 L115.30,275.41 L116.45,275.39 L117.59,275.36 L118.74,275.34 L119.89,275.32 L121.04,275.31 L122.18,275.28 L123.33,275.26 L124.48,275.23 L125.63,275.21 L126.77,275.19 L127.92,275.17 L129.07,275.14 L130.21,275.12 L131.36,275.10 L132.51,275.07 L133.66,275.05 L134.80,275.03 L135.95,275.00 L137.10,274.98 L138.24,274.95 L139.39,274.93 L140.54,274.90 L141.69,274.88 L142.83,274.85 L143.98,274.83 L145.13,274.80 L146.27,274.77 L147.42,274.74 L148.57,274.72 L149.72,274.69 L150.86,274.66 L152.01,274.63 L153.16,274.61 L154.31,274.58 L155.45,274.54 L156.60,274.51 L157.75,274.49 L158.89,274.46 L160.04,274.43 L161.19,274.40 L162.34,274.37 L163.48,274.34 L164.63,274.30 L165.78,274.27 L166.93,274.24 L168.07,274.20 L169.22,274.17 L170.37,274.14 L171.51,274.11 L172.66,274.07 L173.81,274.03 L174.96,274.00 L176.10,273.97 L177.25,273.93 L178.40,273.90 L179.54,273.86 L180.69,273.82 L181.84,273.79 L182.99,273.75 L184.13,273.71 L185.28,273.67 L186.43,273.63 L187.57,273.59 L188.72,273.55 L189.87,273.52 L191.02,273.48 L192.16,273.44 L193.31,273.39 L194.46,273.35 L195.61,273.31 L196.75,273.27 L197.90,273.23 L199.05,273.18 L200.19,273.14 L201.34,273.09 L202.30,273.06 L202.30,272.76 L202.49,272.75 L203.64,272.70 L204.78,272.66 L205.93,272.61 L207.08,272.56 L208.22,272.52 L209.37,272.47 L210.52,272.42 L211.67,272.37 L212.81,272.32 L213.96,272.27 L215.11,272.23 L216.26,272.17 L217.40,272.12 L218.55,272.07 L219.70,272.02 L220.84,271.96 L221.99,271.91 L223.14,271.86 L224.29,271.80 L225.43,271.75 L226.58,271.69 L227.73,271.63 L228.88,271.58 L230.02,271.52 L231.17,271.46 L232.32,271.40 L233.46,271.34 L234.61,271.28 L235.76,271.22 L236.91,271.16 L238.05,271.10 L239.20,271.03 L240.35,270.97 L241.49,270.90 L242.64,270.84 L243.79,270.77 L244.94,270.71 L246.08,270.64 L247.23,270.57 L248.38,270.50 L249.53,270.43 L250.67,270.36 L251.82,270.29 L252.97,270.22 L254.11,270.14 L255.26,270.07 L256.41,270.00 L257.56,269.92 L257.56,269.63 L258.70,269.55 L259.85,269.48 L261.00,269.40 L262.14,269.32 L263.29,269.24 L264.44,269.17 L265.59,269.09 L266.73,269.00 L267.88,268.92 L269.03,268.84 L270.18,268.75 L271.32,268.67 L272.47,268.58 L273.62,268.49 L274.76,268.41 L275.91,268.32 L277.06,268.23 L278.21,268.14 L279.35,268.04 L280.50,267.95 L281.65,267.86 L282.79,267.76 L283.94,267.67 L285.09,267.57 L286.24,267.48 L287.38,267.38 L288.53,267.28 L289.68,267.18 L290.82,267.07 L291.97,266.97 L293.12,266.87 L294.27,266.77 L295.41,266.66 L296.56,266.55 L297.71,266.45 L298.86,266.34 L300.00,266.23 L301.15,266.12 L301.34,266.10 L301.34,265.81 L302.30,265.72 L303.44,265.60 L304.59,265.49 L305.74,265.37 L306.89,265.26 L308.03,265.14 L309.18,265.02 L310.33,264.90 L311.48,264.78 L312.62,264.65 L313.77,264.53 L314.92,264.41 L316.06,264.28 L317.21,264.15 L318.36,264.02 L319.51,263.90 L320.65,263.76 L321.80,263.63 L322.95,263.50 L324.09,263.36 L325.24,263.23 L326.39,263.09 L327.54,262.95 L328.68,262.81 L329.83,262.67 L330.98,262.53 L332.13,262.38 L333.27,262.24 L334.42,262.09 L335.57,261.95 L336.71,261.80 L337.86,261.65 L339.01,261.50 L340.16,261.34 L341.30,261.19 L342.45,261.03 L343.60,260.88 L344.74,260.72 L345.89,260.56 L347.04,260.40 L348.19,260.24 L349.33,260.07 L349.33,259.79 L350.48,259.63 L351.63,259.46 L352.78,259.29 L353.92,259.13 L355.07,258.96 L356.22,258.78 L357.36,258.61 L358.51,258.44 L359.66,258.26 L360.81,258.08 L361.95,257.91 L363.10,257.73 L364.25,257.55 L365.39,257.36 L366.54,257.18 L367.69,257.00 L368.84,256.81 L369.98,256.62 L371.13,256.43 L372.28,256.24 L373.43,256.05 L374.57,255.86 L375.72,255.66 L376.87,255.47 L378.01,255.27 L379.16,255.07 L380.31,254.87 L381.46,254.67 L382.60,254.47 L383.75,254.26 L384.90,254.06 L386.04,253.85 L387.19,253.64 L388.34,253.43 L389.49,253.22 L390.63,253.01 L391.78,252.80 L392.93,252.58 L393.12,252.55 L393.12,252.27 L394.07,252.09 L395.22,251.87 L396.37,251.66 L397.52,251.44 L398.66,251.22 L399.81,250.99 L400.96,250.77 L402.11,250.54 L403.25,250.32 L404.40,250.09 L405.55,249.86 L406.69,249.63 L407.84,249.40 L408.99,249.17 L410.14,248.94 L411.28,248.70 L412.43,248.47 L413.58,248.23 L414.72,247.99 L415.87,247.75 L417.02,247.51 L418.17,247.27 L419.31,247.02 L420.46,246.78 L421.61,246.53 L422.76,246.29 L423.90,246.04 L425.05,245.79 L426.20,245.54 L427.34,245.29 L428.49,245.04 L429.64,244.79 L430.79,244.53 L431.93,244.28 L433.08,244.02 L434.23,243.76 L435.38,243.50 L436.52,243.24 L437.67,242.98 L438.82,242.72 L439.96,242.46 L441.11,242.19 L441.11,241.92 L442.26,241.66 L443.41,241.39 L444.55,241.13 L445.70,240.86 L446.85,240.59 L447.99,240.32 L449.14,240.05 L450.29,239.78 L451.44,239.50 L452.58,239.23 L453.73,238.96 L454.88,238.68 L456.02,238.41 L457.17,238.13 L458.32,237.85 L459.47,237.57 L460.61,237.29 L461.76,237.01 L462.91,236.73 L464.06,236.45 L465.20,236.17 L466.35,235.88 L467.50,235.60 L468.64,235.31 L469.79,235.03 L470.94,234.74 L472.09,234.45 L473.23,234.16 L474.38,233.87 L475.53,233.58 L476.68,233.29 L477.82,233.00 L478.97,232.71 L480.12,232.41 L481.26,232.12 L482.41,231.83 L483.56,231.53 L484.71,231.23 L484.90,231.18 L484.90,230.92 L485.85,230.67 L487.00,230.37 L488.15,230.08 L489.29,229.78 L490.44,229.48 L491.59,229.18 L492.74,228.88 L493.88,228.58 L495.03,228.28 L496.18,227.97 L497.32,227.67 L498.47,227.37 L499.62,227.06 L500.77,226.76 L501.91,226.45 L503.06,226.15 L504.21,225.84 L505.36,225.53 L506.50,225.23 L507.65,224.92 L508.80,224.61 L509.94,224.30 L511.09,223.99 L512.24,223.68 L513.39,223.37 L514.53,223.06 L515.68,222.75 L516.83,222.43 L517.98,222.12 L519.12,221.81 L520.27,221.50 L521.42,221.18 L522.56,220.87 L523.71,220.55 L524.86,220.24 L526.01,219.92 L527.15,219.60 L528.30,219.29 L529.45,218.97 L530.59,218.65 L531.74,218.34 L532.89,218.02 L532.89,217.75 L534.04,217.44 L535.18,217.12 L536.33,216.80 L537.48,216.48 L538.63,216.16 L539.77,215.84 L540.92,215.52 L542.07,215.19 L543.21,214.87 L544.36,214.55 L545.51,214.23 L546.66,213.91 L547.80,213.58 L548.95,213.26 L550.10,212.94 L551.24,212.61 L552.39,212.29 L553.54,211.96 L554.69,211.64 L555.83,211.31 L556.98,210.99 L558.13,210.66 L559.27,210.33 L560.42,210.01 L561.57,209.68 L562.72,209.35 L563.86,209.03 L565.01,208.70 L566.16,208.37 L567.31,208.04 L568.45,207.71 L569.60,207.39 L570.75,207.06 L571.89,206.73 L573.04,206.40 L574.19,206.07 L575.34,205.74 L576.48,205.41 L576.68,205.35 L576.68,205.09 L577.63,204.82 L578.78,204.49 L579.92,204.16 L581.07,203.83 L582.22,203.50 L583.37,203.17 L584.51,202.83 L585.66,202.50 L586.81,202.17 L587.96,201.84 L589.10,201.50 L590.25,201.17 L591.40,200.84 L592.54,200.51 L593.69,200.17 L594.84,199.84 L595.99,199.50 L597.13,199.17 L598.28,198.84 L599.43,198.50 L600.57,198.17 L601.72,197.83 L602.87,197.50 L604.02,197.16 L605.16,196.83 L606.31,196.49 L607.46,196.16 L608.61,195.82 L609.75,195.49 L610.90,195.15 L612.05,194.81 L613.19,194.48 L614.34,194.14 L615.49,193.81 L616.64,193.47 L617.78,193.13 L618.93,192.80 L620.08,192.46 L621.23,192.12 L622.37,191.78 L623.52,191.45 L624.67,191.11 L624.67,190.86 L625.81,190.52 L626.96,190.18 L628.11,189.84 L629.26,189.50 L630.40,189.17 L631.55,188.83 L632.70,188.49 L633.84,188.15 L634.99,187.81 L636.14,187.47 L637.29,187.13 L638.43,186.79 L639.58,186.46 L640.73,186.12 L641.88,185.78 L643.02,185.44 L644.17,185.10 L645.32,184.76 L646.46,184.42 L647.61,184.08 L648.76,183.74 L649.91,183.40 L651.05,183.06 L652.20,182.72 L653.35,182.38 L654.49,182.04 L655.64,181.70 L656.79,181.36 L657.94,181.02 L659.08,180.68 L660.23,180.33 L661.38,179.99 L662.52,179.65 L663.67,179.31 L664.82,178.97 L665.97,178.63 L667.11,178.29 L668.26,177.95 L668.46,177.89 L668.46,177.64 L669.41,177.36 L670.56,177.01 L671.70,176.67 L672.85,176.33 L674.00,175.99 L675.14,175.65 L676.29,175.31 L677.44,174.96 L678.59,174.62 L679.73,174.28 L680.88,173.94 L682.03,173.60 L683.18,173.25 L684.32,172.91 L685.47,172.57 L686.62,172.23 L687.76,171.88 L688.91,171.54 L690.06,171.20 L691.21,170.86 L692.35,170.51 L693.50,170.17 L694.65,169.83 L695.79,169.48 L696.94,169.14 L698.09,168.80 L699.24,168.46 L700.38,168.11 L701.53,167.77 L702.68,167.43 L703.82,167.08 L704.97,166.74 L706.12,166.40 L707.27,166.05 L708.41,165.71 L709.56,165.37 L710.71,165.02 L711.86,164.68 L713.00,164.33 L714.15,163.99 L715.30,163.65 L716.44,163.30 L716.44,163.06 L717.59,162.72 L718.74,162.37 L719.89,162.03 L721.03,161.68 L722.18,161.34 L723.33,161.00 L724.48,160.65 L725.62,160.31 L726.77,159.96 L727.92,159.62 L729.06,159.28 L730.21,158.93 L731.36,158.59 L732.51,158.24 L733.65,157.90 L734.80,157.55 L735.95,157.21 L737.09,156.87 L738.24,156.52 L739.39,156.18 L740.54,155.83 L741.68,155.49 L742.83,155.14 L743.98,154.80 L745.13,154.45 L746.27,154.11 L747.42,153.76 L748.57,153.42 L749.71,153.08 L750.86,152.73 L752.01,152.39 L753.16,152.04 L754.30,151.70 L755.45,151.35 L756.60,151.01 L757.74,150.66 L758.89,150.32 L760.04,149.97 L761.19,149.63 L762.33,149.28 L763.48,148.94 L764.63,148.59 L765.77,148.25 L766.92,147.90 L768.07,147.56 L769.22,147.21 L770.36,146.87 L771.51,146.52 L772.66,146.18 L773.81,145.83 L774.95,145.49 L776.10,145.14 L777.25,144.79 L778.39,144.45 L779.54,144.10 L780.69,143.76 L781.84,143.41 L782.98,143.07 L784.13,142.72 L785.28,142.38 L786.43,142.03 L787.57,141.69 L788.72,141.34 L789.87,141.00 L791.01,140.65 L792.16,140.30 L793.31,139.96 L794.46,139.61 L795.60,139.27 L796.75,138.92 L797.90,138.58 L799.04,138.23 L800.19,137.89 L801.34,137.54 L802.49,137.19 L803.63,136.85 L804.78,136.50 L805.93,136.16 L807.07,135.81 L808.22,135.47 L808.22,135.23 L809.37,134.88 L810.52,134.53 L811.66,134.19 L812.81,133.84 L813.96,133.50 L815.11,133.15 L816.25,132.81 L817.40,132.46 L818.55,132.11 L819.69,131.77 L820.84,131.42 L821.99,131.08 L823.14,130.73 L824.28,130.38 L825.43,130.04 L826.58,129.69 L827.73,129.35 L828.87,129.00 L830.02,128.65 L831.17,128.31 L832.31,127.96 L833.46,127.62 L834.61,127.27 L835.76,126.93 L836.90,126.58 L838.05,126.23 L839.20,125.89 L840.34,125.54 L841.49,125.20 L842.64,124.85 L843.79,124.50 L844.93,124.16 L846.08,123.81 L847.23,123.47 L848.38,123.12 L849.52,122.77 L850.67,122.43 L851.82,122.08 L852.96,121.73 L854.11,121.39 L855.26,121.04 L856.41,120.70 L857.55,120.35 L858.70,120.00 L859.85,119.66 L860.99,119.31 L862.14,118.97 L863.29,118.62 L864.44,118.27 L865.58,117.93 L866.73,117.58 L867.88,117.23 L869.02,116.89 L870.17,116.54 L871.32,116.20 L872.47,115.85 L873.61,115.50 L874.76,115.16 L875.91,114.81 L877.06,114.46 L878.20,114.12 L879.35,113.77 L880.50,113.43 L881.64,113.08 L882.79,112.73 L883.94,112.39 L885.09,112.04 L886.23,111.69 L887.38,111.35 L888.53,111.00 L889.67,110.66 L890.82,110.31 L891.97,109.96 L893.12,109.62 L894.26,109.27 L895.41,108.92 L896.56,108.58 L897.71,108.23 L898.85,107.89 L900.00,107.54 L900.00,107.30" stroke="#2563eb" stroke-dasharray=""/>
<line class="swatch" x1="20" x2="46" y1="367" y2="367" stroke="#2563eb" stroke-width="2" stroke-dasharray=""/>
<text x="55" y="371">No direct grants · with Mastery</text>
<path class="series" data-series="1" d="M74.00,241.82 L75.15,241.82 L76.29,241.82 L77.44,241.82 L78.59,241.82 L79.74,241.82 L80.88,241.81 L82.03,241.81 L83.18,241.81 L84.32,241.81 L85.47,241.81 L86.62,241.81 L87.77,241.80 L88.91,241.80 L90.06,241.80 L91.21,241.80 L92.36,241.80 L93.50,241.80 L94.65,241.79 L95.80,241.79 L96.94,241.79 L98.09,241.79 L99.24,241.79 L100.39,241.79 L101.53,241.78 L102.68,241.78 L103.83,241.78 L104.98,241.78 L106.12,241.78 L107.27,241.77 L108.42,241.77 L109.56,241.77 L110.71,241.77 L111.86,241.76 L113.01,241.76 L114.15,241.76 L115.30,241.76 L116.45,241.76 L117.59,241.75 L118.74,241.75 L119.89,241.75 L121.04,241.75 L122.18,241.74 L123.33,241.74 L124.48,241.74 L125.63,241.74 L126.77,241.73 L127.92,241.73 L129.07,241.73 L130.21,241.73 L131.36,241.72 L132.51,241.72 L133.66,241.72 L134.80,241.72 L135.95,241.71 L137.10,241.71 L138.24,241.71 L139.39,241.71 L140.54,241.70 L141.69,241.70 L142.83,241.70 L143.98,241.69 L145.13,241.69 L146.27,241.69 L147.42,241.69 L148.57,241.68 L149.72,241.68 L150.86,241.68 L152.01,241.67 L153.16,241.67 L154.31,241.67 L155.45,241.66 L156.60,241.66 L157.75,241.66 L158.89,241.65 L160.04,241.65 L161.19,241.65 L162.34,241.64 L163.48,241.64 L164.63,241.64 L165.78,241.63 L166.93,241.63 L168.07,241.62 L169.22,241.62 L170.37,241.62 L171.51,241.61 L172.66,241.61 L173.81,241.61 L174.96,241.60 L176.10,241.60 L177.25,241.59 L178.40,241.59 L179.54,241.58 L180.69,241.58 L181.84,241.58 L182.99,241.57 L184.13,241.57 L185.28,241.56 L186.43,241.56 L187.57,241.55 L188.72,241.55 L189.87,241.54 L191.02,241.54 L192.16,241.53 L193.31,241.53 L194.46,241.52 L195.61,241.52 L196.75,241.51 L197.90,241.51 L199.05,241.50 L200.19,241.50 L201.34,241.49 L202.30,241.49 L202.30,241.45 L202.49,241.45 L203.64,241.44 L204.78,241.44 L205.93,241.43 L207.08,241.43 L208.22,241.42 L209.37,241.42 L210.52,241.41 L211.67,241.40 L212.81,241.40 L213.96,241.39 L215.11,241.38 L216.26,241.38 L217.40,241.37 L218.55,241.36 L219.70,241.36 L220.84,241.35 L221.99,241.34 L223.14,241.34 L224.29,241.33 L225.43,241.32 L226.58,241.31 L227.73,241.31 L228.88,241.30 L230.02,241.29 L231.17,241.28 L232.32,241.27 L233.46,241.27 L234.61,241.26 L235.76,241.25 L236.91,241.24 L238.05,241.23 L239.20,241.22 L240.35,241.22 L241.49,241.21 L242.64,241.20 L243.79,241.19 L244.94,241.18 L246.08,241.17 L247.23,241.16 L248.38,241.15 L249.53,241.14 L250.67,241.13 L251.82,241.12 L252.97,241.11 L254.11,241.10 L255.26,241.09 L256.41,241.08 L257.56,241.07 L257.56,241.02 L258.70,241.01 L259.85,241.00 L261.00,240.99 L262.14,240.98 L263.29,240.96 L264.44,240.95 L265.59,240.94 L266.73,240.93 L267.88,240.91 L269.03,240.90 L270.18,240.89 L271.32,240.87 L272.47,240.86 L273.62,240.85 L274.76,240.83 L275.91,240.82 L277.06,240.81 L278.21,240.79 L279.35,240.78 L280.50,240.76 L281.65,240.74 L282.79,240.73 L283.94,240.71 L285.09,240.70 L286.24,240.68 L287.38,240.66 L288.53,240.65 L289.68,240.63 L290.82,240.61 L291.97,240.59 L293.12,240.58 L294.27,240.56 L295.41,240.54 L296.56,240.52 L297.71,240.50 L298.86,240.48 L300.00,240.46 L301.15,240.44 L301.34,240.44 L301.34,240.39 L302.30,240.37 L303.44,240.35 L304.59,240.33 L305.74,240.30 L306.89,240.28 L308.03,240.26 L309.18,240.24 L310.33,240.21 L311.48,240.19 L312.62,240.17 L313.77,240.14 L314.92,240.12 L316.06,240.09 L317.21,240.07 L318.36,240.04 L319.51,240.01 L320.65,239.99 L321.80,239.96 L322.95,239.93 L324.09,239.90 L325.24,239.87 L326.39,239.85 L327.54,239.82 L328.68,239.79 L329.83,239.75 L330.98,239.72 L332.13,239.69 L333.27,239.66 L334.42,239.63 L335.57,239.59 L336.71,239.56 L337.86,239.53 L339.01,239.49 L340.16,239.46 L341.30,239.42 L342.45,239.38 L343.60,239.34 L344.74,239.31 L345.89,239.27 L347.04,239.23 L348.19,239.19 L349.33,239.15 L349.33,239.08 L350.48,239.04 L351.63,238.99 L352.78,238.95 L353.92,238.91 L355.07,238.86 L356.22,238.82 L357.36,238.77 L358.51,238.72 L359.66,238.68 L360.81,238.63 L361.95,238.58 L363.10,238.53 L364.25,238.48 L365.39,238.43 L366.54,238.37 L367.69,238.32 L368.84,238.27 L369.98,238.21 L371.13,238.16 L372.28,238.10 L373.43,238.04 L374.57,237.98 L375.72,237.92 L376.87,237.86 L378.01,237.80 L379.16,237.74 L380.31,237.67 L381.46,237.61 L382.60,237.54 L383.75,237.48 L384.90,237.41 L386.04,237.34 L387.19,237.27 L388.34,237.20 L389.49,237.13 L390.63,237.06 L391.78,236.98 L392.93,236.91 L393.12,236.89 L393.12,236.80 L394.07,236.73 L395.22,236.65 L396.37,236.57 L397.52,236.49 L398.66,236.41 L399.81,236.33 L400.96,236.24 L402.11,236.15 L403.25,236.07 L404.40,235.98 L405.55,235.89 L406.69,235.80 L407.84,235.71 L408.99,235.61 L410.14,235.52 L411.28,235.42 L412.43,235.32 L413.58,235.22 L414.72,235.12 L415.87,235.02 L417.02,234.91 L418.17,234.81 L419.31,234.70 L420.46,234.59 L421.61,234.48 L422.76,234.37 L423.90,234.26 L425.05,234.15 L426.20,234.03 L427.34,233.91 L428.49,233.79 L429.64,233.67 L430.79,233.55 L431.93,233.43 L433.08,233.30 L434.23,233.18 L435.38,233.05 L436.52,232.92 L437.67,232.78 L438.82,232.65 L439.96,232.52 L441.11,232.38 L441.11,232.24 L442.26,232.10 L443.41,231.96 L444.55,231.81 L445.70,231.67 L446.85,231.52 L447.99,231.37 L449.14,231.22 L450.29,231.07 L451.44,230.92 L452.58,230.76 L453.73,230.61 L454.88,230.45 L456.02,230.29 L457.17,230.12 L458.32,229.96 L459.47,229.80 L460.61,229.63 L461.76,229.46 L462.91,229.29 L464.06,229.11 L465.20,228.94 L466.35,228.76 L467.50,228.59 L468.64,228.41 L469.79,228.22 L470.94,228.04 L472.09,227.86 L473.23,227.67 L474.38,227.48 L475.53,227.29 L476.68,227.10 L477.82,226.90 L478.97,226.71 L480.12,226.51 L481.26,226.31 L482.41,226.11 L483.56,225.91 L484.71,225.70 L484.90,225.67 L484.90,225.48 L485.85,225.31 L487.00,225.10 L488.15,224.89 L489.29,224.68 L490.44,224.47 L491.59,224.25 L492.74,224.03 L493.88,223.81 L495.03,223.59 L496.18,223.37 L497.32,223.15 L498.47,222.92 L499.62,222.70 L500.77,222.47 L501.91,222.24 L503.06,222.01 L504.21,221.77 L505.36,221.54 L506.50,221.30 L507.65,221.06 L508.80,220.82 L509.94,220.58 L511.09,220.34 L512.24,220.10 L513.39,219.85 L514.53,219.60 L515.68,219.36 L516.83,219.11 L517.98,218.85 L519.12,218.60 L520.27,218.35 L521.42,218.09 L522.56,217.84 L523.71,217.58 L524.86,217.32 L526.01,217.06 L527.15,216.80 L528.30,216.53 L529.45,216.27 L530.59,216.00 L531.74,215.74 L532.89,215.47 L532.89,215.25 L534.04,214.98 L535.18,214.70 L536.33,214.43 L537.48,214.16 L538.63,213.88 L539.77,213.61 L540.92,213.33 L542.07,213.05 L543.21,212.77 L544.36,212.49 L545.51,212.21 L546.66,211.93 L547.80,211.64 L548.95,211.36 L550.10,211.07 L551.24,210.79 L552.39,210.50 L553.54,210.21 L554.69,209.92 L555.83,209.63 L556.98,209.34 L558.13,209.05 L559.27,208.75 L560.42,208.46 L561.57,208.16 L562.72,207.87 L563.86,207.57 L565.01,207.27 L566.16,206.97 L567.31,206.67 L568.45,206.37 L569.60,206.07 L570.75,205.77 L571.89,205.47 L573.04,205.17 L574.19,204.86 L575.34,204.56 L576.48,204.25 L576.68,204.20 L576.68,203.96 L577.63,203.71 L578.78,203.40 L579.92,203.09 L581.07,202.78 L582.22,202.47 L583.37,202.16 L584.51,201.85 L585.66,201.54 L586.81,201.23 L587.96,200.92 L589.10,200.60 L590.25,200.29 L591.40,199.98 L592.54,199.66 L593.69,199.35 L594.84,199.03 L595.99,198.71 L597.13,198.40 L598.28,198.08 L599.43,197.76 L600.57,197.44 L601.72,197.12 L602.87,196.80 L604.02,196.48 L605.16,196.16 L606.31,195.84 L607.46,195.52 L608.61,195.20 L609.75,194.88 L610.90,194.55 L612.05,194.23 L613.19,193.91 L614.34,193.58 L615.49,193.26 L616.64,192.93 L617.78,192.61 L618.93,192.28 L620.08,191.96 L621.23,191.63 L622.37,191.30 L623.52,190.98 L624.67,190.65 L624.67,190.40 L625.81,190.08 L626.96,189.75 L628.11,189.42 L629.26,189.09 L630.40,188.76 L631.55,188.43 L632.70,188.10 L633.84,187.77 L634.99,187.44 L636.14,187.11 L637.29,186.78 L638.43,186.45 L639.58,186.12 L640.73,185.79 L641.88,185.45 L643.02,185.12 L644.17,184.79 L645.32,184.46 L646.46,184.12 L647.61,183.79 L648.76,183.46 L649.91,183.12 L651.05,182.79 L652.20,182.45 L653.35,182.12 L654.49,181.79 L655.64,181.45 L656.79,181.12 L657.94,180.78 L659.08,180.44 L660.23,180.11 L661.38,179.77 L662.52,179.44 L663.67,179.10 L664.82,178.76 L665.97,178.43 L667.11,178.09 L668.26,177.75 L668.46,177.70 L668.46,177.45 L669.41,177.17 L670.56,176.83 L671.70,176.50 L672.85,176.16 L674.00,175.82 L675.14,175.48 L676.29,175.14 L677.44,174.81 L678.59,174.47 L679.73,174.13 L680.88,173.79 L682.03,173.45 L683.18,173.11 L684.32,172.77 L685.47,172.43 L686.62,172.09 L687.76,171.75 L688.91,171.41 L690.06,171.07 L691.21,170.73 L692.35,170.39 L693.50,170.05 L694.65,169.71 L695.79,169.37 L696.94,169.03 L698.09,168.69 L699.24,168.35 L700.38,168.01 L701.53,167.67 L702.68,167.33 L703.82,166.99 L704.97,166.65 L706.12,166.31 L707.27,165.96 L708.41,165.62 L709.56,165.28 L710.71,164.94 L711.86,164.60 L713.00,164.26 L714.15,163.91 L715.30,163.57 L716.44,163.23 L716.44,162.99 L717.59,162.64 L718.74,162.30 L719.89,161.96 L721.03,161.62 L722.18,161.28 L723.33,160.93 L724.48,160.59 L725.62,160.25 L726.77,159.90 L727.92,159.56 L729.06,159.22 L730.21,158.88 L731.36,158.53 L732.51,158.19 L733.65,157.85 L734.80,157.50 L735.95,157.16 L737.09,156.82 L738.24,156.47 L739.39,156.13 L740.54,155.79 L741.68,155.44 L742.83,155.10 L743.98,154.76 L745.13,154.41 L746.27,154.07 L747.42,153.73 L748.57,153.38 L749.71,153.04 L750.86,152.69 L752.01,152.35 L753.16,152.01 L754.30,151.66 L755.45,151.32 L756.60,150.97 L757.74,150.63 L758.89,150.29 L760.04,149.94 L761.19,149.60 L762.33,149.25 L763.48,148.91 L764.63,148.56 L765.77,148.22 L766.92,147.88 L768.07,147.53 L769.22,147.19 L770.36,146.84 L771.51,146.50 L772.66,146.15 L773.81,145.81 L774.95,145.46 L776.10,145.12 L777.25,144.77 L778.39,144.43 L779.54,144.08 L780.69,143.74 L781.84,143.39 L782.98,143.05 L784.13,142.70 L785.28,142.36 L786.43,142.01 L787.57,141.67 L788.72,141.32 L789.87,140.98 L791.01,140.63 L792.16,140.29 L793.31,139.94 L794.46,139.60 L795.60,139.25 L796.75,138.91 L797.90,138.56 L799.04,138.22 L800.19,137.87 L801.34,137.53 L802.49,137.18 L803.63,136.84 L804.78,136.49 L805.93,136.15 L807.07,135.80 L808.22,135.45 L808.22,135.21 L809.37,134.87 L810.52,134.52 L811.66,134.18 L812.81,133.83 L813.96,133.49 L815.11,133.14 L816.25,132.80 L817.40,132.45 L818.55,132.10 L819.69,131.76 L820.84,131.41 L821.99,131.07 L823.14,130.72 L824.28,130.38 L825.43,130.03 L826.58,129.68 L827.73,129.34 L828.87,128.99 L830.02,128.65 L831.17,128.30 L832.31,127.96 L833.46,127.61 L834.61,127.26 L835.76,126.92 L836.90,126.57 L838.05,126.23 L839.20,125.88 L840.34,125.54 L841.49,125.19 L842.64,124.84 L843.79,124.50 L844.93,124.15 L846.08,123.81 L847.23,123.46 L848.38,123.11 L849.52,122.77 L850.67,122.42 L851.82,122.08 L852.96,121.73 L854.11,121.38 L855.26,121.04 L856.41,120.69 L857.55,120.35 L858.70,120.00 L859.85,119.65 L860.99,119.31 L862.14,118.96 L863.29,118.62 L864.44,118.27 L865.58,117.92 L866.73,117.58 L867.88,117.23 L869.02,116.89 L870.17,116.54 L871.32,116.19 L872.47,115.85 L873.61,115.50 L874.76,115.15 L875.91,114.81 L877.06,114.46 L878.20,114.12 L879.35,113.77 L880.50,113.42 L881.64,113.08 L882.79,112.73 L883.94,112.38 L885.09,112.04 L886.23,111.69 L887.38,111.35 L888.53,111.00 L889.67,110.65 L890.82,110.31 L891.97,109.96 L893.12,109.61 L894.26,109.27 L895.41,108.92 L896.56,108.58 L897.71,108.23 L898.85,107.88 L900.00,107.54 L900.00,107.30" stroke="#c05b11" stroke-dasharray="8 4"/>
<line class="swatch" x1="20" x2="46" y1="390" y2="390" stroke="#c05b11" stroke-width="2" stroke-dasharray="8 4"/>
<text x="55" y="394">Flat recovery +40 Stamina/min</text>
<path class="series" data-series="2" d="M74.00,273.92 L75.15,273.91 L76.29,273.89 L77.44,273.88 L78.59,273.87 L79.74,273.85 L80.88,273.83 L82.03,273.82 L83.18,273.80 L84.32,273.79 L85.47,273.77 L86.62,273.76 L87.77,273.74 L88.91,273.72 L90.06,273.71 L91.21,273.69 L92.36,273.68 L93.50,273.66 L94.65,273.64 L95.80,273.62 L96.94,273.61 L98.09,273.59 L99.24,273.57 L100.39,273.56 L101.53,273.54 L102.68,273.52 L103.83,273.50 L104.98,273.48 L106.12,273.46 L107.27,273.44 L108.42,273.42 L109.56,273.40 L110.71,273.38 L111.86,273.36 L113.01,273.34 L114.15,273.33 L115.30,273.31 L116.45,273.29 L117.59,273.26 L118.74,273.24 L119.89,273.22 L121.04,273.20 L122.18,273.18 L123.33,273.16 L124.48,273.13 L125.63,273.11 L126.77,273.08 L127.92,273.07 L129.07,273.04 L130.21,273.02 L131.36,272.99 L132.51,272.97 L133.66,272.95 L134.80,272.92 L135.95,272.90 L137.10,272.87 L138.24,272.85 L139.39,272.82 L140.54,272.80 L141.69,272.77 L142.83,272.75 L143.98,272.72 L145.13,272.70 L146.27,272.66 L147.42,272.64 L148.57,272.61 L149.72,272.58 L150.86,272.56 L152.01,272.53 L153.16,272.50 L154.31,272.47 L155.45,272.44 L156.60,272.41 L157.75,272.39 L158.89,272.35 L160.04,272.32 L161.19,272.29 L162.34,272.26 L163.48,272.23 L164.63,272.20 L165.78,272.17 L166.93,272.13 L168.07,272.10 L169.22,272.07 L170.37,272.03 L171.51,272.00 L172.66,271.97 L173.81,271.93 L174.96,271.90 L176.10,271.86 L177.25,271.83 L178.40,271.79 L179.54,271.75 L180.69,271.72 L181.84,271.68 L182.99,271.65 L184.13,271.61 L185.28,271.57 L186.43,271.53 L187.57,271.49 L188.72,271.45 L189.87,271.41 L191.02,271.37 L192.16,271.33 L193.31,271.29 L194.46,271.25 L195.61,271.21 L196.75,271.16 L197.90,271.12 L199.05,271.08 L200.19,271.03 L201.34,270.99 L202.30,270.95 L202.30,270.69 L202.49,270.68 L203.64,270.64 L204.78,270.59 L205.93,270.55 L207.08,270.50 L208.22,270.45 L209.37,270.41 L210.52,270.36 L211.67,270.31 L212.81,270.26 L213.96,270.21 L215.11,270.16 L216.26,270.11 L217.40,270.06 L218.55,270.00 L219.70,269.95 L220.84,269.90 L221.99,269.84 L223.14,269.79 L224.29,269.73 L225.43,269.68 L226.58,269.62 L227.73,269.57 L228.88,269.51 L230.02,269.45 L231.17,269.39 L232.32,269.33 L233.46,269.27 L234.61,269.21 L235.76,269.15 L236.91,269.09 L238.05,269.03 L239.20,268.97 L240.35,268.90 L241.49,268.84 L242.64,268.77 L243.79,268.71 L244.94,268.64 L246.08,268.57 L247.23,268.50 L248.38,268.44 L249.53,268.36 L250.67,268.30 L251.82,268.23 L252.97,268.15 L254.11,268.08 L255.26,268.01 L256.41,267.93 L257.56,267.86 L257.56,267.60 L258.70,267.53 L259.85,267.45 L261.00,267.37 L262.14,267.30 L263.29,267.21 L264.44,267.14 L265.59,267.06 L266.73,266.97 L267.88,266.89 L269.03,266.81 L270.18,266.73 L271.32,266.64 L272.47,266.55 L273.62,266.47 L274.76,266.38 L275.91,266.29 L277.06,266.20 L278.21,266.11 L279.35,266.02 L280.50,265.92 L281.65,265.83 L282.79,265.74 L283.94,265.64 L285.09,265.54 L286.24,265.45 L287.38,265.35 L288.53,265.25 L289.68,265.15 L290.82,265.05 L291.97,264.95 L293.12,264.84 L294.27,264.74 L295.41,264.63 L296.56,264.52 L297.71,264.42 L298.86,264.31 L300.00,264.20 L301.15,264.09 L301.34,264.07 L301.34,263.82 L302.30,263.72 L303.44,263.61 L304.59,263.50 L305.74,263.38 L306.89,263.26 L308.03,263.14 L309.18,263.03 L310.33,262.91 L311.48,262.78 L312.62,262.66 L313.77,262.54 L314.92,262.42 L316.06,262.29 L317.21,262.16 L318.36,262.03 L319.51,261.90 L320.65,261.77 L321.80,261.64 L322.95,261.50 L324.09,261.37 L325.24,261.23 L326.39,261.10 L327.54,260.96 L328.68,260.82 L329.83,260.68 L330.98,260.54 L332.13,260.39 L333.27,260.25 L334.42,260.10 L335.57,259.95 L336.71,259.80 L337.86,259.65 L339.01,259.50 L340.16,259.35 L341.30,259.20 L342.45,259.04 L343.60,258.88 L344.74,258.73 L345.89,258.57 L347.04,258.41 L348.19,258.25 L349.33,258.08 L349.33,257.83 L350.48,257.67 L351.63,257.50 L352.78,257.34 L353.92,257.17 L355.07,257.00 L356.22,256.83 L357.36,256.65 L358.51,256.48 L359.66,256.30 L360.81,256.13 L361.95,255.95 L363.10,255.77 L364.25,255.59 L365.39,255.41 L366.54,255.22 L367.69,255.04 L368.84,254.85 L369.98,254.66 L371.13,254.47 L372.28,254.28 L373.43,254.09 L374.57,253.90 L375.72,253.70 L376.87,253.51 L378.01,253.31 L379.16,253.11 L380.31,252.91 L381.46,252.71 L382.60,252.51 L383.75,252.30 L384.90,252.10 L386.04,251.89 L387.19,251.68 L388.34,251.48 L389.49,251.27 L390.63,251.05 L391.78,250.84 L392.93,250.62 L393.12,250.59 L393.12,250.35 L394.07,250.17 L395.22,249.95 L396.37,249.73 L397.52,249.51 L398.66,249.29 L399.81,249.07 L400.96,248.84 L402.11,248.62 L403.25,248.39 L404.40,248.17 L405.55,247.94 L406.69,247.71 L407.84,247.48 L408.99,247.25 L410.14,247.01 L411.28,246.78 L412.43,246.54 L413.58,246.30 L414.72,246.07 L415.87,245.83 L417.02,245.58 L418.17,245.34 L419.31,245.10 L420.46,244.86 L421.61,244.61 L422.76,244.36 L423.90,244.12 L425.05,243.87 L426.20,243.62 L427.34,243.37 L428.49,243.11 L429.64,242.86 L430.79,242.61 L431.93,242.35 L433.08,242.09 L434.23,241.84 L435.38,241.58 L436.52,241.32 L437.67,241.06 L438.82,240.80 L439.96,240.53 L441.11,240.27 L441.11,240.03 L442.26,239.77 L443.41,239.50 L444.55,239.23 L445.70,238.97 L446.85,238.70 L447.99,238.43 L449.14,238.16 L450.29,237.89 L451.44,237.61 L452.58,237.34 L453.73,237.06 L454.88,236.79 L456.02,236.51 L457.17,236.24 L458.32,235.96 L459.47,235.68 L460.61,235.40 L461.76,235.12 L462.91,234.84 L464.06,234.56 L465.20,234.27 L466.35,233.99 L467.50,233.70 L468.64,233.42 L469.79,233.13 L470.94,232.85 L472.09,232.56 L473.23,232.27 L474.38,231.98 L475.53,231.69 L476.68,231.40 L477.82,231.11 L478.97,230.81 L480.12,230.52 L481.26,230.23 L482.41,229.93 L483.56,229.64 L484.71,229.34 L484.90,229.29 L484.90,229.06 L485.85,228.81 L487.00,228.51 L488.15,228.22 L489.29,227.92 L490.44,227.62 L491.59,227.32 L492.74,227.02 L493.88,226.72 L495.03,226.41 L496.18,226.11 L497.32,225.81 L498.47,225.51 L499.62,225.20 L500.77,224.90 L501.91,224.59 L503.06,224.29 L504.21,223.98 L505.36,223.67 L506.50,223.36 L507.65,223.06 L508.80,222.75 L509.94,222.44 L511.09,222.13 L512.24,221.82 L513.39,221.51 L514.53,221.20 L515.68,220.89 L516.83,220.57 L517.98,220.26 L519.12,219.95 L520.27,219.63 L521.42,219.32 L522.56,219.01 L523.71,218.69 L524.86,218.38 L526.01,218.06 L527.15,217.74 L528.30,217.43 L529.45,217.11 L530.59,216.79 L531.74,216.47 L532.89,216.16 L532.89,215.92 L534.04,215.61 L535.18,215.29 L536.33,214.97 L537.48,214.65 L538.63,214.33 L539.77,214.01 L540.92,213.69 L542.07,213.36 L543.21,213.04 L544.36,212.72 L545.51,212.40 L546.66,212.07 L547.80,211.75 L548.95,211.43 L550.10,211.10 L551.24,210.78 L552.39,210.46 L553.54,210.13 L554.69,209.81 L555.83,209.48 L556.98,209.16 L558.13,208.83 L559.27,208.50 L560.42,208.18 L561.57,207.85 L562.72,207.52 L563.86,207.20 L565.01,206.87 L566.16,206.54 L567.31,206.21 L568.45,205.88 L569.60,205.55 L570.75,205.23 L571.89,204.90 L573.04,204.57 L574.19,204.24 L575.34,203.91 L576.48,203.58 L576.68,203.52 L576.68,203.29 L577.63,203.02 L578.78,202.69 L579.92,202.36 L581.07,202.03 L582.22,201.70 L583.37,201.36 L584.51,201.03 L585.66,200.70 L586.81,200.37 L587.96,200.04 L589.10,199.70 L590.25,199.37 L591.40,199.04 L592.54,198.70 L593.69,198.37 L594.84,198.04 L595.99,197.70 L597.13,197.37 L598.28,197.04 L599.43,196.70 L600.57,196.37 L601.72,196.03 L602.87,195.70 L604.02,195.36 L605.16,195.03 L606.31,194.69 L607.46,194.36 L608.61,194.02 L609.75,193.69 L610.90,193.35 L612.05,193.01 L613.19,192.68 L614.34,192.34 L615.49,192.00 L616.64,191.67 L617.78,191.33 L618.93,190.99 L620.08,190.66 L621.23,190.32 L622.37,189.98 L623.52,189.64 L624.67,189.31 L624.67,189.08 L625.81,188.74 L626.96,188.41 L628.11,188.07 L629.26,187.73 L630.40,187.39 L631.55,187.05 L632.70,186.72 L633.84,186.38 L634.99,186.04 L636.14,185.70 L637.29,185.36 L638.43,185.02 L639.58,184.68 L640.73,184.34 L641.88,184.00 L643.02,183.66 L644.17,183.32 L645.32,182.98 L646.46,182.65 L647.61,182.31 L648.76,181.97 L649.91,181.63 L651.05,181.29 L652.20,180.94 L653.35,180.60 L654.49,180.26 L655.64,179.92 L656.79,179.58 L657.94,179.24 L659.08,178.90 L660.23,178.56 L661.38,178.22 L662.52,177.88 L663.67,177.54 L664.82,177.20 L665.97,176.86 L667.11,176.51 L668.26,176.17 L668.46,176.11 L668.46,175.89 L669.41,175.61 L670.56,175.27 L671.70,174.93 L672.85,174.59 L674.00,174.24 L675.14,173.90 L676.29,173.56 L677.44,173.22 L678.59,172.88 L679.73,172.53 L680.88,172.19 L682.03,171.85 L683.18,171.51 L684.32,171.16 L685.47,170.82 L686.62,170.48 L687.76,170.14 L688.91,169.79 L690.06,169.45 L691.21,169.11 L692.35,168.77 L693.50,168.42 L694.65,168.08 L695.79,167.74 L696.94,167.40 L698.09,167.05 L699.24,166.71 L700.38,166.37 L701.53,166.02 L702.68,165.68 L703.82,165.34 L704.97,164.99 L706.12,164.65 L707.27,164.31 L708.41,163.96 L709.56,163.62 L710.71,163.28 L711.86,162.93 L713.00,162.59 L714.15,162.25 L715.30,161.90 L716.44,161.56 L716.44,161.34 L717.59,161.00 L718.74,160.65 L719.89,160.31 L721.03,159.96 L722.18,159.62 L723.33,159.28 L724.48,158.93 L725.62,158.59 L726.77,158.24 L727.92,157.90 L729.06,157.56 L730.21,157.21 L731.36,156.87 L732.51,156.52 L733.65,156.18 L734.80,155.83 L735.95,155.49 L737.09,155.15 L738.24,154.80 L739.39,154.46 L740.54,154.11 L741.68,153.77 L742.83,153.42 L743.98,153.08 L745.13,152.73 L746.27,152.39 L747.42,152.05 L748.57,151.70 L749.71,151.36 L750.86,151.01 L752.01,150.67 L753.16,150.32 L754.30,149.98 L755.45,149.63 L756.60,149.29 L757.74,148.94 L758.89,148.60 L760.04,148.25 L761.19,147.91 L762.33,147.56 L763.48,147.22 L764.63,146.87 L765.77,146.53 L766.92,146.18 L768.07,145.84 L769.22,145.49 L770.36,145.15 L771.51,144.80 L772.66,144.46 L773.81,144.11 L774.95,143.77 L776.10,143.42 L777.25,143.08 L778.39,142.73 L779.54,142.39 L780.69,142.04 L781.84,141.69 L782.98,141.35 L784.13,141.00 L785.28,140.66 L786.43,140.31 L787.57,139.97 L788.72,139.62 L789.87,139.28 L791.01,138.93 L792.16,138.59 L793.31,138.24 L794.46,137.89 L795.60,137.55 L796.75,137.20 L797.90,136.86 L799.04,136.51 L800.19,136.17 L801.34,135.82 L802.49,135.48 L803.63,135.13 L804.78,134.78 L805.93,134.44 L807.07,134.09 L808.22,133.75 L808.22,133.53 L809.37,133.19 L810.52,132.84 L811.66,132.49 L812.81,132.15 L813.96,131.80 L815.11,131.46 L816.25,131.11 L817.40,130.77 L818.55,130.42 L819.69,130.07 L820.84,129.73 L821.99,129.38 L823.14,129.04 L824.28,128.69 L825.43,128.35 L826.58,128.00 L827.73,127.65 L828.87,127.31 L830.02,126.96 L831.17,126.62 L832.31,126.27 L833.46,125.92 L834.61,125.58 L835.76,125.23 L836.90,124.89 L838.05,124.54 L839.20,124.19 L840.34,123.85 L841.49,123.50 L842.64,123.16 L843.79,122.81 L844.93,122.46 L846.08,122.12 L847.23,121.77 L848.38,121.43 L849.52,121.08 L850.67,120.73 L851.82,120.39 L852.96,120.04 L854.11,119.70 L855.26,119.35 L856.41,119.00 L857.55,118.66 L858.70,118.31 L859.85,117.96 L860.99,117.62 L862.14,117.27 L863.29,116.93 L864.44,116.58 L865.58,116.23 L866.73,115.89 L867.88,115.54 L869.02,115.20 L870.17,114.85 L871.32,114.50 L872.47,114.16 L873.61,113.81 L874.76,113.46 L875.91,113.12 L877.06,112.77 L878.20,112.43 L879.35,112.08 L880.50,111.73 L881.64,111.39 L882.79,111.04 L883.94,110.69 L885.09,110.35 L886.23,110.00 L887.38,109.66 L888.53,109.31 L889.67,108.96 L890.82,108.62 L891.97,108.27 L893.12,107.92 L894.26,107.58 L895.41,107.23 L896.56,106.88 L897.71,106.54 L898.85,106.19 L900.00,105.85 L900.00,105.63" stroke="#19856a" stroke-dasharray="2 4"/>
<line class="swatch" x1="20" x2="46" y1="413" y2="413" stroke="#19856a" stroke-width="2" stroke-dasharray="2 4"/>
<text x="55" y="417">Recovery scaling +15 %</text>
<rect data-plot="0" x="70" y="87" width="834" height="216" fill="transparent"/>
</svg>
